<?xml version="1.0" encoding="UTF-8"?>
<svg version="1.1" xmlns="http://www.w3.org/2000/svg" width="1024" height="1024">
<path d="M0 0 C2.8843662 1.53205207 5.62413184 3.2126827 8.3828125 4.9609375 C10.01325398 5.93920239 11.64384581 6.91722819 13.27734375 7.89038086 C15.15907169 9.01393438 17.03450639 10.14758243 18.91015625 11.28125 C37.10101017 22.2267006 55.57209211 32.72032059 73.95776367 43.33447266 C76.36381181 44.72629205 78.7660735 46.12446735 81.16796875 47.5234375 C83.6610027 48.97368807 86.16127665 50.38739248 88.69140625 51.7734375 C89.57957031 52.2684375 90.46773437 52.7634375 91.3828125 53.2734375 C92.1046875 53.66144531 92.8265625 54.04945313 93.5703125 54.44921875 C96.84499851 57.18047626 98.19290567 60.31992568 98.68270874 64.55238342 C98.8279378 67.82388463 98.87660925 71.08466865 98.89453125 74.359375 C98.91257309 75.59843094 98.93061493 76.83748688 98.94920349 78.11408997 C98.99481 81.48710264 99.02717319 84.85971721 99.05277252 88.23290634 C99.07623884 91.04650111 99.11006098 93.85993264 99.14388275 96.673419 C99.25665136 106.10239779 99.32601964 115.53147613 99.3828125 124.9609375 C99.3893195 126.00154705 99.3893195 126.00154705 99.39595795 127.06317902 C99.4563347 136.75823121 99.49255122 146.45319981 99.5078125 156.1484375 C99.51058197 157.32549255 99.51335144 158.50254761 99.51620483 159.715271 C99.52199948 163.06151537 99.52023628 166.40766174 99.515625 169.75390625 C99.51759384 170.71698196 99.51956268 171.68005768 99.52159119 172.6723175 C99.512275 175.43758822 99.46267949 178.19682032 99.3828125 180.9609375 C99.33782623 182.52118149 99.33782623 182.52118149 99.29193115 184.11294556 C98.97542728 190.11226889 98.62075858 194.36265269 94.3828125 198.9609375 C91.79931641 200.90454102 91.79931641 200.90454102 88.859375 202.58984375 C87.7672168 203.2255127 86.67505859 203.86118164 85.54980469 204.51611328 C84.36921876 205.18535921 83.18855275 205.85446388 82.0078125 206.5234375 C80.78466754 207.23020082 79.56234589 207.93839073 78.34082031 208.64794922 C75.86724874 210.08276724 73.38999793 211.51085498 70.90917969 212.93310547 C65.95840365 215.77448593 61.04537425 218.67913899 56.1328125 221.5859375 C55.26100342 222.09801758 54.38919434 222.61009766 53.4909668 223.13769531 C48.64811384 225.99015756 43.84954311 228.90202966 39.08203125 231.87890625 C38.0362793 232.52843262 36.99052734 233.17795898 35.91308594 233.84716797 C33.89598236 235.10347893 31.8845917 236.36902332 29.87988281 237.64501953 C28.97206055 238.20946777 28.06423828 238.77391602 27.12890625 239.35546875 C25.93285767 240.11114136 25.93285767 240.11114136 24.71264648 240.88208008 C22.01260229 242.13236776 20.322646 242.40328426 17.3828125 241.9609375 C14.9826742 238.36073005 15.1347378 236.75583783 15.13989258 232.47680664 C15.13799423 231.82264771 15.13609589 231.16848877 15.13414001 230.49450684 C15.13043173 228.32824767 15.14114732 226.16232327 15.15234375 223.99609375 C15.15353696 222.48213236 15.15398841 220.96817022 15.1537323 219.45420837 C15.15529791 216.27403145 15.16358559 213.09396697 15.17700195 209.91381836 C15.19386145 205.86935629 15.19781988 201.82501924 15.19705677 197.78052616 C15.19733119 194.64807475 15.20285762 191.51564982 15.21005821 188.38320732 C15.21320799 186.89431394 15.2152035 185.4054176 15.21595192 183.91652107 C15.22321623 177.00896929 15.28570688 170.10023355 15.64331055 163.20092773 C15.68820114 162.27940414 15.73309174 161.35788055 15.77934265 160.40843201 C16.79691462 156.28146225 19.5687375 154.48750997 23.01733398 152.25683594 C24.00290283 151.7002832 24.98847168 151.14373047 26.00390625 150.5703125 C27.09904541 149.94672852 28.19418457 149.32314453 29.32250977 148.68066406 C29.89494415 148.35843872 30.46737854 148.03621338 31.05715942 147.70422363 C33.42066893 146.37272199 35.7748969 145.02522229 38.12956238 143.67816162 C39.84706433 142.69566804 41.56561369 141.71500618 43.28417969 140.734375 C47.02524479 138.59325485 50.75296291 136.43501963 54.4453125 134.2109375 C55.40566406 133.63859375 56.36601562 133.06625 57.35546875 132.4765625 C59.67152828 131.04558703 59.67152828 131.04558703 60.3828125 127.9609375 C60.47992826 125.19185561 60.5227704 122.44868824 60.515625 119.6796875 C60.51658173 118.8697937 60.51753845 118.0598999 60.51852417 117.22546387 C60.51920431 115.51407799 60.51736161 113.80268951 60.51318359 112.09130859 C60.50783299 109.47096973 60.51313419 106.85080228 60.51953125 104.23046875 C60.51887044 102.56770795 60.51758922 100.90494727 60.515625 99.2421875 C60.51866135 98.06553528 60.51866135 98.06553528 60.52175903 96.8651123 C60.50783067 93.63568908 60.41142072 91.04676217 59.3828125 87.9609375 C57.13335304 86.33341391 57.13335304 86.33341391 54.30078125 84.80859375 C53.23351807 84.20305664 52.16625488 83.59751953 51.06665039 82.97363281 C50.4967337 82.65575806 49.92681702 82.3378833 49.33963013 82.01037598 C46.95128624 80.67814007 44.57413027 79.32653319 42.19645691 77.97537231 C40.98932356 77.28942575 39.78164781 76.60443287 38.57344055 75.92037964 C33.31083034 72.93654972 28.11981631 69.84424781 22.9453125 66.7109375 C21.34910271 65.75366546 19.75274972 64.79663218 18.15625 63.83984375 C14.81191672 61.83144501 11.48940053 59.79060691 8.171875 57.73828125 C6.47175467 56.70767237 4.77124693 55.67770223 3.0703125 54.6484375 C2.29953369 54.16149414 1.52875488 53.67455078 0.73461914 53.17285156 C-2.87413522 51.01388334 -4.95800051 49.96378189 -9.23828125 49.9453125 C-12.93192723 51.05554135 -16.07894273 52.55605496 -19.3671875 54.5234375 C-20.0276709 54.9062085 -20.6881543 55.28897949 -21.36865234 55.68334961 C-23.79324686 57.09531301 -26.20530407 58.52736823 -28.6171875 59.9609375 C-30.80200556 61.25273572 -32.98690715 62.54439266 -35.171875 63.8359375 C-38.71861962 65.93432894 -42.26375657 68.03537631 -45.80541992 70.14233398 C-51.73721239 73.67057401 -57.67567059 77.18173162 -63.6796875 80.5859375 C-64.70578125 81.16988281 -65.731875 81.75382812 -66.7890625 82.35546875 C-68.73516576 83.46023179 -70.68319691 84.56160342 -72.6328125 85.66015625 C-74.01726562 86.45873047 -74.01726562 86.45873047 -75.4296875 87.2734375 C-76.21988281 87.72332031 -77.01007813 88.17320312 -77.82421875 88.63671875 C-79.92366383 89.92162268 -79.92366383 89.92162268 -80.6171875 92.9609375 C-80.71816489 95.44928162 -80.76403447 97.90967723 -80.76245117 100.39819336 C-80.76580978 101.15298477 -80.7691684 101.90777618 -80.77262878 102.68544006 C-80.78213303 105.18223717 -80.78408157 107.67896718 -80.78515625 110.17578125 C-80.788369 111.91069059 -80.79173308 113.64559966 -80.79524231 115.38050842 C-80.80123212 119.01792021 -80.80308234 122.65530824 -80.80249023 126.29272461 C-80.80238857 130.95455818 -80.81604542 135.61623958 -80.83326244 140.27803707 C-80.84437801 143.86138103 -80.84640959 147.44468813 -80.84588051 151.02804756 C-80.84706112 152.74684741 -80.85148741 154.46564819 -80.85921288 156.18443108 C-80.86900462 158.58782508 -80.86613812 160.99088783 -80.86010742 163.39428711 C-80.86572693 164.10455048 -80.87134644 164.81481384 -80.87713623 165.54660034 C-80.85402892 169.16856718 -80.73274116 171.94915265 -78.6171875 174.9609375 C-75.82542946 176.95582738 -75.82542946 176.95582738 -72.4375 178.78125 C-71.82832733 179.12598358 -71.21915466 179.47071716 -70.59152222 179.82589722 C-68.64729854 180.92282138 -66.69498526 182.00436575 -64.7421875 183.0859375 C-63.4356505 183.82064195 -62.12965433 184.55630906 -60.82421875 185.29296875 C-53.78730175 189.25177127 -53.78730175 189.25177127 -46.6171875 192.9609375 C-46.61332905 189.41145865 -46.61126509 185.8619804 -46.609375 182.3125 C-46.607668 180.63590805 -46.607668 180.63590805 -46.60592651 178.92544556 C-46.60345876 172.8387682 -46.62278271 166.75337665 -46.68457031 160.66699219 C-46.74673785 154.47972951 -46.75704271 148.29397177 -46.73925781 142.10644531 C-46.74123604 139.56047021 -46.76154258 137.01445284 -46.79882812 134.46875 C-46.8501219 130.72240456 -46.83770663 126.98088826 -46.8125 123.234375 C-46.84223907 122.10212494 -46.87197815 120.96987488 -46.90261841 119.80331421 C-46.7632654 112.13627614 -46.7632654 112.13627614 -43.42619324 108.71400452 C-40.89179699 106.91667248 -38.36893352 105.39826375 -35.6171875 103.9609375 C-34.53566406 103.32542969 -33.45414062 102.68992187 -32.33984375 102.03515625 C-31.46199219 101.57753906 -30.58414063 101.11992187 -29.6796875 100.6484375 C-26.87373464 99.17480758 -24.2586836 97.7219349 -21.6171875 95.9609375 C-18.0546875 95.7109375 -18.0546875 95.7109375 -14.6171875 95.9609375 C-11.85664359 98.72148141 -12.36094453 100.31130871 -12.34976196 104.17955017 C-12.34523085 104.8243436 -12.34069974 105.46913702 -12.33603132 106.13346964 C-12.32332536 108.30381405 -12.32501162 110.47390952 -12.32666016 112.64428711 C-12.32067878 114.19634832 -12.31387415 115.74840654 -12.30630493 117.30046082 C-12.28859852 121.52356545 -12.28394763 125.74658911 -12.28267336 129.96972728 C-12.28077727 133.49126375 -12.27342315 137.01278122 -12.26632917 140.5343104 C-12.25003021 148.84018477 -12.24516161 157.14601577 -12.24658203 165.4519043 C-12.24778408 174.02935354 -12.22667317 182.60655141 -12.1950947 191.18393701 C-12.16897358 198.54023869 -12.15821297 205.89645805 -12.15949285 213.25280577 C-12.16000369 217.64993431 -12.15425377 222.04683955 -12.13313675 226.44392204 C-12.11382403 230.57834668 -12.11358164 234.71233339 -12.12817001 238.84677315 C-12.13026788 240.36616274 -12.1254993 241.88557923 -12.1134491 243.40492249 C-12.09808702 245.47558265 -12.10724178 247.5447156 -12.12271118 249.61534119 C-12.12162165 250.7751245 -12.12053211 251.93490782 -12.11940956 253.12983608 C-12.6171875 255.9609375 -12.6171875 255.9609375 -14.46962547 257.86364079 C-17.58827657 259.45711541 -19.2859911 258.91684603 -22.6171875 257.9609375 C-25.66796875 256.46484375 -25.66796875 256.46484375 -28.9296875 254.5234375 C-29.82602905 253.99544556 -29.82602905 253.99544556 -30.74047852 253.45678711 C-32.02948319 252.696435 -33.31611869 251.93205487 -34.60058594 251.1640625 C-36.65417338 249.93887135 -38.71622318 248.72923652 -40.78125 247.5234375 C-47.48124194 243.60753782 -54.15504351 239.64918484 -60.8046875 235.6484375 C-66.87288186 231.99773348 -72.95912981 228.3782678 -79.0546875 224.7734375 C-79.97209717 224.23033936 -80.88950684 223.68724121 -81.8347168 223.12768555 C-86.92461221 220.1206364 -92.02885074 217.1408827 -97.15234375 214.19140625 C-98.77088257 213.25687622 -98.77088257 213.25687622 -100.42211914 212.3034668 C-102.50311339 211.10340081 -104.58681098 209.90800659 -106.67358398 208.71801758 C-120.28290344 200.86103143 -120.28290344 200.86103143 -122.6171875 194.9609375 C-122.87445641 192.48648262 -122.87445641 192.48648262 -122.88461304 189.66091919 C-122.89314301 188.58707977 -122.90167297 187.51324036 -122.91046143 186.40686035 C-122.90955505 185.23377319 -122.90864868 184.06068604 -122.90771484 182.85205078 C-122.91443207 181.6126474 -122.92114929 180.37324402 -122.92807007 179.09628296 C-122.94381531 175.69945613 -122.95042522 172.3028738 -122.95170164 168.90602732 C-122.9531241 166.78259517 -122.95739548 164.65918858 -122.96269608 162.53576279 C-122.98119483 155.12424851 -122.9893669 147.71280613 -122.98779297 140.30126953 C-122.98659165 133.3983864 -123.00769223 126.49581598 -123.0392803 119.59301198 C-123.06545325 113.66166152 -123.07615984 107.73041314 -123.07488215 101.79900539 C-123.0743728 98.25860337 -123.08004042 94.71847929 -123.10123825 91.17813492 C-123.12424337 87.22817069 -123.11509341 83.27863357 -123.10302734 79.32861328 C-123.11426636 78.15957458 -123.12550537 76.99053589 -123.13708496 75.78607178 C-123.08857338 69.54368491 -122.85845935 65.68396635 -118.6171875 60.9609375 C-116.72607422 59.39355469 -116.72607422 59.39355469 -114.796875 58.2578125 C-113.74693359 57.62359375 -113.74693359 57.62359375 -112.67578125 56.9765625 C-111.95519531 56.55890625 -111.23460938 56.14125 -110.4921875 55.7109375 C-109.05078169 54.8537475 -107.61061877 53.99446311 -106.171875 53.1328125 C-105.22030518 52.5773877 -105.22030518 52.5773877 -104.24951172 52.01074219 C-102.44942372 50.93466546 -102.44942372 50.93466546 -100.6171875 48.9609375 C-98.67550019 47.96931126 -96.71312443 47.01807473 -94.7421875 46.0859375 C-87.95343217 42.77784632 -81.51969602 38.99642269 -75.07006836 35.07543945 C-67.36246433 30.39180285 -59.59181195 25.82302526 -51.8046875 21.2734375 C-44.1358537 16.79039901 -36.47320978 12.30010211 -28.8671875 7.7109375 C-27.7534375 7.04707031 -26.6396875 6.38320313 -25.4921875 5.69921875 C-23.6806035 4.60389962 -21.88580691 3.4798262 -20.1171875 2.31640625 C-13.64696036 -1.76118481 -7.27491462 -2.88824968 0 0 Z " fill="#4B72FE" transform="translate(205.6171875,375.0390625)"/>
<path d="M0 0 C1.58206057 0.00667536 3.16410534 0.0186375 4.74609375 0.03515625 C5.55240234 0.03966797 6.35871094 0.04417969 7.18945312 0.04882812 C9.18753131 0.06065107 11.18557158 0.07858711 13.18359375 0.09765625 C19.65832504 11.84122331 25.46552039 23.87151831 31.18725586 35.99731445 C31.8387871 37.37078254 32.50375443 38.7379776 33.18359375 40.09765625 C38.47304557 29.65515682 43.58660815 19.13765356 48.58911133 8.55444336 C49.04181396 7.60061768 49.4945166 6.64679199 49.9609375 5.6640625 C50.36562256 4.80756104 50.77030762 3.95105957 51.18725586 3.06860352 C52.18359375 1.09765625 52.18359375 1.09765625 53.18359375 0.09765625 C58.79359375 0.09765625 64.40359375 0.09765625 70.18359375 0.09765625 C70.18359375 24.51765625 70.18359375 48.93765625 70.18359375 74.09765625 C65.56359375 74.09765625 60.94359375 74.09765625 56.18359375 74.09765625 C55.3700602 68.42262638 55.04727412 62.95092563 55.0859375 57.22265625 C55.08694458 56.50335938 55.08795166 55.7840625 55.08898926 55.04296875 C55.09416202 52.39451468 55.10812252 49.74608361 55.12109375 47.09765625 C55.14171875 41.15765625 55.16234375 35.21765625 55.18359375 29.09765625 C49.90359375 39.98765625 44.62359375 50.87765625 39.18359375 62.09765625 C35.88359375 62.09765625 32.58359375 62.09765625 29.18359375 62.09765625 C26.74409729 59.3096603 25.6889749 57.40765333 24.18359375 54.09765625 C23.54460079 52.835722 22.89956281 51.57683875 22.25 50.3203125 C18.66538184 43.34663094 15.27291061 36.30606226 12.18359375 29.09765625 C11.02104973 33.24349338 11.07575218 37.2366801 11.12109375 41.51171875 C11.12488037 42.32256927 11.12866699 43.1334198 11.13256836 43.96884155 C11.14476529 46.55350091 11.1634015 49.13804773 11.18359375 51.72265625 C11.21011686 55.13150729 11.23013668 58.54030375 11.24609375 61.94921875 C11.25439209 62.7356778 11.26269043 63.52213684 11.27124023 64.33242798 C11.29638594 69.87207188 11.29638594 69.87207188 10.18359375 72.09765625 C10.84359375 72.42765625 11.50359375 72.75765625 12.18359375 73.09765625 C9.18045627 74.59922499 6.39291853 74.19046829 3.05859375 74.16015625 C1.13660156 74.14662109 1.13660156 74.14662109 -0.82421875 74.1328125 C-1.81164062 74.12121094 -2.7990625 74.10960937 -3.81640625 74.09765625 C-4.94434071 70.48226907 -4.94332825 67.09790783 -4.94580078 63.32543945 C-4.9475531 62.65346527 -4.94930542 61.98149109 -4.95111084 61.28915405 C-4.95550036 59.07555535 -4.95260259 56.86203697 -4.94921875 54.6484375 C-4.94989238 53.10955286 -4.95086291 51.57066833 -4.95211792 50.03178406 C-4.95359076 46.81146224 -4.95145273 43.5911682 -4.94677734 40.37084961 C-4.9410659 36.2345399 -4.94437059 32.09829486 -4.95034981 27.9619875 C-4.95395433 24.78709928 -4.95281759 21.61222654 -4.95022202 18.43733788 C-4.94955319 16.91143982 -4.95037964 15.38554037 -4.95270157 13.85964394 C-4.95522786 11.73362089 -4.95138854 9.6077045 -4.94580078 7.48168945 C-4.94500519 6.2701973 -4.94420959 5.05870514 -4.94338989 3.8105011 C-4.74547634 -0.41767163 -4.42724072 0.11328661 0 0 Z " fill="#7248F6" transform="translate(569.81640625,445.90234375)"/>
<path d="M0 0 C4.95 0 9.9 0 15 0 C15.66 2.31 16.32 4.62 17 7 C17.556875 6.38125 18.11375 5.7625 18.6875 5.125 C23.32557595 0.86298426 28.08600756 0.5484518 34.15625 0.6953125 C40.65436467 1.39153907 45.35207458 3.95067959 49.875 8.625 C56.19169966 16.58316221 57.09227405 26.1198847 56 36 C53.94936754 43.95840694 48.76410501 50.54180897 41.9375 55 C33.64136075 57.8970645 24.70705863 56.71590327 17 53 C17.01047363 53.55985596 17.02094727 54.11971191 17.03173828 54.6965332 C17.07333326 57.23514307 17.09933685 59.7736812 17.125 62.3125 C17.15013672 63.63411133 17.15013672 63.63411133 17.17578125 64.98242188 C17.18222656 65.82998047 17.18867187 66.67753906 17.1953125 67.55078125 C17.20578613 68.33106689 17.21625977 69.11135254 17.22705078 69.9152832 C17 72 17 72 15 75 C14.34 74.67 13.68 74.34 13 74 C11.12620395 73.92966231 9.24998898 73.9156978 7.375 73.9375 C5.87066406 73.95103516 5.87066406 73.95103516 4.3359375 73.96484375 C3.56507813 73.97644531 2.79421875 73.98804688 2 74 C0.85814309 70.57442926 0.88674753 67.96996668 0.90234375 64.35717773 C0.90380402 63.68695587 0.90526428 63.01673401 0.9067688 62.32620239 C0.91057124 60.87260132 0.91668407 59.41900487 0.92483521 57.96542168 C0.93759274 55.66688485 0.94411264 53.36840569 0.94897461 51.06983948 C0.96040505 46.19236712 0.97965339 41.31494225 1 36.4375 C1.02357034 30.78283593 1.04396802 25.12819894 1.05593872 19.47349739 C1.06243707 17.2055564 1.07494403 14.93769806 1.08764648 12.66978455 C1.09127787 11.28433302 1.09462974 9.89888072 1.09765625 8.51342773 C1.10289307 7.30113998 1.10812988 6.08885223 1.11352539 4.83982849 C1.19695104 2.0512942 1.19695104 2.0512942 0 0 Z M18.25 19.0625 C15.83755293 24.73175061 15.19733305 30.54312576 17.1875 36.4375 C19.25860112 40.62499166 19.25860112 40.62499166 23 43 C28.01405689 44.20708777 31.24464118 43.97173415 36 42 C36 41.34 36 40.68 36 40 C36.66 40 37.32 40 38 40 C40.921318 33.68995313 41.68812119 28.82092209 40 22 C38.35166019 18.81699898 37.02987244 16.78128254 34.1875 14.625 C27.60720382 12.74491538 22.66915335 13.85421212 18.25 19.0625 Z " fill="#7348F7" transform="translate(748,464)"/>
<path d="M0 0 C0.33 0.66 0.66 1.32 1 2 C4.3 2 7.6 2 11 2 C11.33 9.59 11.66 17.18 12 25 C14.64 23.68 17.28 22.36 20 21 C25.98135503 19.90663403 31.89408632 20.48211111 37.2109375 23.5234375 C41.43920303 27.01314137 44.28217814 31.84653442 46 37 C46.0853013 39.87694671 46.11585645 42.72900182 46.09765625 45.60546875 C46.0962413 46.44467361 46.09482635 47.28387848 46.09336853 48.14851379 C46.08777215 50.82821216 46.07522035 53.5078269 46.0625 56.1875 C46.05748453 58.00455608 46.05292171 59.82161348 46.04882812 61.63867188 C46.03780391 66.09248013 46.02054178 70.54622589 46 75 C42.64867396 75.70541386 39.61566599 76.11366666 36.1875 76.0625 C35.39730469 76.05347656 34.60710938 76.04445313 33.79296875 76.03515625 C33.20128906 76.02355469 32.60960937 76.01195312 32 76 C31.14529693 70.12391637 30.95030807 64.42366519 31 58.5 C31.71580688 46.40133378 31.71580688 46.40133378 27 36 C21.80421249 34.72234733 17.901652 34.48939776 13 37 C11.46954941 40.7739056 11.77375036 45.02826438 11.68359375 49.046875 C11.66281265 49.81807678 11.64203156 50.58927856 11.62062073 51.3838501 C11.55541428 53.83914572 11.49637516 56.29454521 11.4375 58.75 C11.39428726 60.41797935 11.3506721 62.08594832 11.30664062 63.75390625 C11.19976264 67.83583196 11.09841434 71.91786182 11 76 C6.05 76 1.1 76 -4 76 C-4 52.24 -4 28.48 -4 4 C-4.99 3.67 -5.98 3.34 -7 3 C-3.535 2.505 -3.535 2.505 0 2 C0 1.34 0 0.68 0 0 Z " fill="#7348F7" transform="translate(815,444)"/>
<path d="M0 0 C0.33 8.25 0.66 16.5 1 25 C2.98 23.68 4.96 22.36 7 21 C12.77712979 19.07429007 18.8099294 19.09812381 24.375 21.6875 C29.97396036 24.90464456 32.24377868 28.89079906 34 35 C34.31884766 37.96923828 34.31884766 37.96923828 34.4140625 41.0703125 C34.47207031 42.78734375 34.47207031 42.78734375 34.53125 44.5390625 C34.57765625 46.31410156 34.57765625 46.31410156 34.625 48.125 C34.68300781 49.86523438 34.68300781 49.86523438 34.7421875 51.640625 C35.2712107 68.53157992 35.2712107 68.53157992 35 74 C34 75 34 75 30.83984375 75.09765625 C29.55207031 75.08605469 28.26429688 75.07445312 26.9375 75.0625 C25.00197266 75.04896484 25.00197266 75.04896484 23.02734375 75.03515625 C22.02832031 75.02355469 21.02929688 75.01195312 20 75 C19.98541748 74.03698975 19.97083496 73.07397949 19.95581055 72.08178711 C19.89750077 68.48262832 19.82027261 64.88407395 19.73754883 61.28540039 C19.70445223 59.73276638 19.67637349 58.18001647 19.65356445 56.62719727 C19.61973476 54.3850806 19.56741013 52.14401153 19.51171875 49.90234375 C19.50532883 49.21663803 19.4989389 48.53093231 19.49235535 47.82444763 C19.34240865 42.82356705 18.3620965 39.33825652 16 35 C11.92295066 33.61534173 9.75354693 33.7440784 5.6875 35.125 C2.51683471 37.33709206 2.08008346 38.34606732 1 42 C0.74140459 45.56619145 0.74140459 45.56619145 0.83984375 49.453125 C0.84504532 50.15395203 0.85024689 50.85477905 0.85560608 51.57684326 C0.8733323 53.8014457 0.90451882 56.02557563 0.9375 58.25 C0.96509924 60.48865848 0.98977844 62.72725424 1.00868225 64.96600342 C1.02653724 66.98684376 1.05393654 69.00759301 1.08178711 71.02832031 C1 74 1 74 0 75 C-2.31074168 75.09932392 -4.62462942 75.12969618 -6.9375 75.125 C-8.83822266 75.12886719 -8.83822266 75.12886719 -10.77734375 75.1328125 C-14 75 -14 75 -16 74 C-15.505 73.01 -15.505 73.01 -15 72 C-14.91319037 69.7891432 -14.89297007 67.57557769 -14.90234375 65.36303711 C-14.90380402 64.68160141 -14.90526428 64.00016571 -14.9067688 63.29808044 C-14.91057719 61.81717646 -14.91669629 60.33627706 -14.92483521 58.85539055 C-14.93756605 56.51520249 -14.94410575 54.17507088 -14.94897461 51.83485413 C-14.96041846 46.86904412 -14.97966756 41.90328053 -15 36.9375 C-15.02354951 31.18158366 -15.04395373 25.42569372 -15.05593872 19.66974068 C-15.06244889 17.35799269 -15.07495613 15.04632504 -15.08764648 12.73460388 C-15.09127709 11.32559277 -15.09462906 9.9165809 -15.09765625 8.50756836 C-15.10289307 7.2722789 -15.10812988 6.03698944 -15.11352539 4.76426697 C-15 2 -15 2 -14 1 C-11.83801065 0.76462213 -9.66968335 0.58607614 -7.5 0.4375 C-6.3140625 0.35371094 -5.128125 0.26992188 -3.90625 0.18359375 C-1 0 -1 0 0 0 Z " fill="#025CA8" transform="translate(521,445)"/>
<path d="M0 0 C7.23699811 4.02416038 10.21986762 9.40179036 12.7421875 16.96875 C12.81155812 19.19693441 12.82675834 21.42709524 12.8046875 23.65625 C12.79566406 24.83574219 12.78664063 26.01523437 12.77734375 27.23046875 C12.76574219 28.13410156 12.75414062 29.03773438 12.7421875 29.96875 C8.53722919 32.07122916 6.29066434 31.81863841 1.7421875 30.96875 C-1.98702336 30.80931325 -5.71321644 30.82910476 -9.4453125 30.84375 C-10.44240234 30.83988281 -11.43949219 30.83601563 -12.46679688 30.83203125 C-13.42263672 30.83332031 -14.37847656 30.83460938 -15.36328125 30.8359375 C-16.23106201 30.83706543 -17.09884277 30.83819336 -17.99291992 30.83935547 C-20.42530586 30.87924645 -20.42530586 30.87924645 -23.2578125 31.96875 C-21.58729545 36.11210376 -21.58729545 36.11210376 -18.48828125 39.1484375 C-15.8137688 40.13205854 -13.66688988 40.23454238 -10.8203125 40.21875 C-9.89347656 40.22390625 -8.96664063 40.2290625 -8.01171875 40.234375 C-3.426774 39.79213919 -0.28355303 38.47223903 2.7421875 34.96875 C3.86806764 35.92604916 4.992859 36.88462895 6.1171875 37.84375 C6.74367188 38.37742187 7.37015625 38.91109375 8.015625 39.4609375 C9.30055401 40.58307007 10.53590725 41.76246975 11.7421875 42.96875 C4.6052411 50.52551678 -1.54071567 53.35810483 -11.6953125 54.28125 C-19.92563808 53.55929162 -27.49973765 51.12349222 -33.2578125 44.96875 C-38.38014036 36.90299493 -40.15187745 29.46346796 -39.2578125 19.96875 C-37.3867866 12.59156215 -33.79032851 5.78974668 -27.19921875 1.6875 C-18.67075625 -2.69409541 -9.00023867 -4.03330197 0 0 Z M-21.5078125 13.84375 C-23.58338359 16.05410056 -23.58338359 16.05410056 -24.2578125 19.96875 C-16.6678125 19.96875 -9.0778125 19.96875 -1.2578125 19.96875 C-2.68568436 14.38886212 -2.68568436 14.38886212 -6.2578125 10.96875 C-12.56528479 9.64621549 -16.3800477 9.57061267 -21.5078125 13.84375 Z " fill="#055AA5" transform="translate(432.2578125,467.03125)"/>
<path d="M0 0 C6.2705577 4.12198672 9.41996074 9.76682656 11.5234375 16.89453125 C13.07575464 24.60907703 11.47148929 32.24430709 7.65625 39.0546875 C3.97159822 44.38588667 -0.70705796 48.35547765 -6.91796875 50.42578125 C-15.80637348 52.02441519 -25.33229659 51.76184257 -33.08984375 46.81640625 C-39.44981479 41.26347699 -42.82511856 34.9362631 -43.96484375 26.56640625 C-44.49248517 18.56384474 -42.66407333 10.66622924 -37.60546875 4.3125 C-27.23865964 -5.92071621 -12.36419728 -7.00252668 0 0 Z M-26.08984375 12.81640625 C-28.8850101 17.66136125 -30.01681061 22.2756725 -29.08984375 27.81640625 C-27.65792301 32.57242871 -26.07702934 35.18992309 -21.83984375 37.87890625 C-17.54360994 38.9529647 -14.30188927 39.26761521 -10.08984375 37.81640625 C-6.44246719 34.96193763 -4.24097507 32.31628323 -3.08984375 27.81640625 C-2.4687965 21.50242585 -3.41477523 17.05789741 -7.08984375 11.81640625 C-10.46410336 8.81706437 -13.58407685 8.26826775 -18.09765625 8.47265625 C-21.56483481 9.07091451 -23.51172464 10.47811217 -26.08984375 12.81640625 Z " fill="#7247F6" transform="translate(691.08984375,469.18359375)"/>
<path d="M0 0 C7.41459942 -0.02312883 14.82919111 -0.04091785 22.24381924 -0.05181217 C25.68640348 -0.05703982 29.12896312 -0.06413531 32.5715332 -0.07543945 C36.52555043 -0.08834235 40.47955756 -0.09322918 44.43359375 -0.09765625 C46.29605995 -0.10539818 46.29605995 -0.10539818 48.19615173 -0.11329651 C49.33725906 -0.11337204 50.47836639 -0.11344757 51.65405273 -0.11352539 C52.664431 -0.115746 53.67480927 -0.11796661 54.71580505 -0.12025452 C57 0 57 0 58 1 C58.07258946 3.18639453 58.08373783 5.37500389 58.0625 7.5625 C58.05347656 8.76003906 58.04445313 9.95757812 58.03515625 11.19140625 C58.02355469 12.11824219 58.01195312 13.04507812 58 14 C57.16021606 14.029729 57.16021606 14.029729 56.3034668 14.06005859 C53.76434146 14.15537783 51.22603112 14.26502753 48.6875 14.375 C47.36588867 14.42140625 47.36588867 14.42140625 46.01757812 14.46875 C45.17001953 14.50742187 44.32246094 14.54609375 43.44921875 14.5859375 C42.66893311 14.6173584 41.88864746 14.6487793 41.0847168 14.68115234 C38.69844232 14.89587889 38.69844232 14.89587889 36 17 C36.66 17 37.32 17 38 17 C37.67 17.66 37.34 18.32 37 19 C36.90457867 20.65406141 36.87204875 22.31193912 36.87060547 23.96875 C36.86587723 25.52045898 36.86587723 25.52045898 36.86105347 27.10351562 C36.8630777 28.22435547 36.86510193 29.34519531 36.8671875 30.5 C36.86623077 31.64662109 36.86527405 32.79324219 36.86428833 33.97460938 C36.86360689 36.40234431 36.86545865 38.83008105 36.86962891 41.2578125 C36.87497763 44.98441643 36.86968265 48.71089984 36.86328125 52.4375 C36.86394204 54.79166693 36.86522321 57.14583379 36.8671875 59.5 C36.86516327 60.62083984 36.86313904 61.74167969 36.86105347 62.89648438 C36.86420563 63.93095703 36.86735779 64.96542969 36.87060547 66.03125 C36.87140106 66.94455078 36.87219666 67.85785156 36.87301636 68.79882812 C36.85712533 71.04338251 36.85712533 71.04338251 38 73 C36.47968196 73.17130344 34.9587061 73.33677073 33.4375 73.5 C32.59058594 73.5928125 31.74367188 73.685625 30.87109375 73.78125 C27.58943254 74.03128133 24.29117243 74 21 74 C20.67 55.52 20.34 37.04 20 18 C19.34 17.67 18.68 17.34 18 17 C18 16.34 18 15.68 18 15 C12.39 14.67 6.78 14.34 1 14 C0.67 14.99 0.34 15.98 0 17 C-0.83809261 12.71641555 -1.01110096 9.09241897 -0.52734375 4.7421875 C-0.4305835 3.85128418 -0.33382324 2.96038086 -0.23413086 2.04248047 C-0.15686768 1.36846191 -0.07960449 0.69444336 0 0 Z " fill="#055BA6" transform="translate(345,446)"/>
<path d="M0 0 C11.67143904 -1.31303689 11.67143904 -1.31303689 17 0 C21.80242765 3.85629721 24.84327902 8.92721487 26 15 C26.99 15 27.98 15 29 15 C29.27585937 14.28457031 29.55171875 13.56914062 29.8359375 12.83203125 C31.89278404 7.82795828 33.69928133 3.45769877 38 0 C43.23209226 -1.24830677 48.71066582 -0.57147668 54 0 C54 3.84612567 52.8154752 4.90511805 50.5 7.9375 C47.42677329 12.0717871 44.37691446 16.20723158 41.4375 20.4375 C40.75558594 21.40558594 40.07367187 22.37367188 39.37109375 23.37109375 C37.83034609 25.80177552 37.83034609 25.80177552 38.0625 28 C39.33200551 30.70827842 40.87920062 33.08860991 42.5625 35.5625 C43.27535156 36.61308594 43.98820313 37.66367187 44.72265625 38.74609375 C47.58093776 42.83005344 50.53123129 46.83951844 53.53125 50.8203125 C55 53 55 53 55 55 C52.41554227 55.1081866 49.83562648 55.18737237 47.25 55.25 C46.52039063 55.28351562 45.79078125 55.31703125 45.0390625 55.3515625 C41.64758184 55.41322578 39.50544449 55.36696655 36.71875 53.34375 C34.78187197 50.70255268 32.97433548 48.03546501 31.25 45.25 C30.63640625 44.26515625 30.0228125 43.2803125 29.390625 42.265625 C28.93171875 41.51796875 28.4728125 40.7703125 28 40 C24.79827942 43.8420647 22.44528362 47.69123788 20.1484375 52.109375 C19 54 19 54 17 55 C14.11629667 55.07194869 11.25760336 55.09291708 8.375 55.0625 C7.57320312 55.05798828 6.77140625 55.05347656 5.9453125 55.04882812 C3.96350994 55.03703168 1.98174567 55.01909605 0 55 C3.44786796 48.22315608 7.59667337 42.30266747 12.25317383 36.31811523 C12.72134521 35.70266846 13.1895166 35.08722168 13.671875 34.453125 C14.0956543 33.90817383 14.51943359 33.36322266 14.95605469 32.80175781 C16.31670433 30.45339617 16.81568398 28.71661339 17 26 C15.91650303 23.48968811 15.91650303 23.48968811 14.140625 21.09375 C13.51929688 20.18496094 12.89796875 19.27617187 12.2578125 18.33984375 C11.26394531 16.93412109 11.26394531 16.93412109 10.25 15.5 C8.96282846 13.63590894 7.67634728 11.77134096 6.390625 9.90625 C5.5248584 8.67358398 5.5248584 8.67358398 4.64160156 7.41601562 C2.99650094 4.99485028 1.48204282 2.52363016 0 0 Z " fill="#7249F4" transform="translate(891,465)"/>
<path d="M0 0 C3.28362204 2.32468817 6.39976463 4.90707837 8.20703125 8.5625 C8.19921875 10.57421875 8.19921875 10.57421875 7.20703125 12.5625 C4.703125 14.265625 4.703125 14.265625 1.64453125 15.8125 C0.63261719 16.33328125 -0.37929688 16.8540625 -1.421875 17.390625 C-2.20433594 17.77734375 -2.98679687 18.1640625 -3.79296875 18.5625 C-4.22609375 17.61375 -4.65921875 16.665 -5.10546875 15.6875 C-6.58599076 12.36208063 -6.58599076 12.36208063 -9.79296875 10.5625 C-13.95235547 10.22706559 -16.7147231 10.15516276 -20.60546875 11.625 C-24.48075224 15.05739395 -25.64503445 18.9352227 -26.10546875 24 C-25.70717381 31.15858526 -25.70717381 31.15858526 -22.16796875 37 C-15.67449156 38.53792881 -11.00793568 39.0992212 -4.79296875 36.5625 C-4.46296875 35.5725 -4.13296875 34.5825 -3.79296875 33.5625 C-0.4159125 34.09975895 2.90371725 34.67314623 6.20703125 35.5625 C6.20703125 36.2225 6.20703125 36.8825 6.20703125 37.5625 C7.52703125 37.8925 8.84703125 38.2225 10.20703125 38.5625 C4.98170818 45.43063297 -1.01339186 50.58314384 -9.6640625 52.34375 C-18.08254068 53.20876794 -26.11228603 51.22524784 -32.8046875 45.98828125 C-39.74518773 39.5133911 -41.35123154 33.12648617 -41.8515625 23.84375 C-41.70204624 15.47083918 -38.69051229 8.51516077 -32.79296875 2.5625 C-30.49727944 0.8252216 -28.449854 -0.20394614 -25.79296875 -1.4375 C-24.90609375 -1.85 -24.01921875 -2.2625 -23.10546875 -2.6875 C-14.79110199 -4.56999813 -7.48350532 -4.25556361 0 0 Z " fill="#045AA4" transform="translate(491.79296875,468.4375)"/>
<path d="M0 0 C2.64 0.33 5.28 0.66 8 1 C8.99 0.67 9.98 0.34 11 0 C13.125 0.625 13.125 0.625 15 2 C15.75 4.625 15.75 4.625 16 7 C16.928125 6.195625 17.85625 5.39125 18.8125 4.5625 C22.1271733 1.68978314 24.82055104 0.86591067 29.1875 0.9375 C31.0746875 0.9684375 31.0746875 0.9684375 33 1 C33 5.95 33 10.9 33 16 C29.2890625 16.29296875 29.2890625 16.29296875 25.578125 16.5859375 C22.84729982 17.02452457 21.24722607 17.3853964 19 19 C16.30170883 23.48843171 15.60804108 26.9094731 15.5234375 32.11328125 C15.50006821 33.09581123 15.50006821 33.09581123 15.47622681 34.09819031 C15.42907199 36.16961651 15.40104508 38.24071036 15.375 40.3125 C15.33849953 42.40191185 15.29796404 44.49113536 15.25234985 46.58036804 C15.21278896 48.46268837 15.1849636 50.34524439 15.15771484 52.2277832 C15 55 15 55 14 56 C9.38 56 4.76 56 0 56 C0 37.52 0 19.04 0 0 Z " fill="#7348F8" transform="translate(710,464)"/>
<path d="M0 0 C0.33 0.66 0.66 1.32 1 2 C5.62 1.67 10.24 1.34 15 1 C15.02463993 8.67211673 15.04283123 16.34421065 15.05493164 24.01635742 C15.05997377 26.62866619 15.06680725 29.24097211 15.07543945 31.85327148 C15.08751036 35.59880268 15.09322935 39.34429672 15.09765625 43.08984375 C15.10281754 44.26586655 15.10797882 45.44188934 15.11329651 46.65354919 C15.11340981 48.27511681 15.11340981 48.27511681 15.11352539 49.92944336 C15.115746 50.88652695 15.11796661 51.84361053 15.12025452 52.82969666 C15 55 15 55 14 56 C11.64686445 56.07271741 9.29166332 56.08370868 6.9375 56.0625 C5.64714844 56.05347656 4.35679687 56.04445313 3.02734375 56.03515625 C2.02832031 56.02355469 1.02929688 56.01195312 0 56 C-0.16891862 49.79291116 -0.329326 43.58567914 -0.48217773 37.37817383 C-0.53523161 35.2706932 -0.59052725 33.16326767 -0.64819336 31.0559082 C-0.73113766 28.01004926 -0.80575997 24.96407694 -0.87890625 21.91796875 C-0.90594131 20.99042282 -0.93297638 20.06287689 -0.96083069 19.10722351 C-1.10449162 12.67271828 -0.70527128 6.39598775 0 0 Z " fill="#7449FB" transform="translate(871,464)"/>
<path d="M0 0 C7.39568012 -0.47316294 7.39568012 -0.47316294 10.06982422 1.62060547 C10.5598291 2.36197754 11.04983398 3.10334961 11.5546875 3.8671875 C12.10640625 4.67027344 12.658125 5.47335937 13.2265625 6.30078125 C13.77054688 7.15027344 14.31453125 7.99976563 14.875 8.875 C15.99661976 10.53958569 17.11898161 12.20367166 18.2421875 13.8671875 C18.96704346 14.98262939 18.96704346 14.98262939 19.70654297 16.12060547 C20.9983818 18.11944948 20.9983818 18.11944948 23 20 C22.99214478 19.14450562 22.99214478 19.14450562 22.98413086 18.27172852 C22.96341779 15.70199677 22.9503581 13.13228253 22.9375 10.5625 C22.92912109 9.66466797 22.92074219 8.76683594 22.91210938 7.84179688 C22.90727539 6.56079102 22.90727539 6.56079102 22.90234375 5.25390625 C22.89448853 4.06776733 22.89448853 4.06776733 22.88647461 2.85766602 C23 1 23 1 24 0 C26.31 0 28.62 0 31 0 C31 11.88 31 23.76 31 36 C28.03 36.495 28.03 36.495 25 37 C20.17707451 31.11227278 15.60846808 25.14465661 11.34765625 18.8359375 C10.90292969 18.23007812 10.45820312 17.62421875 10 17 C9.67 17 9.34 17 9 17 C8.9906543 17.55985596 8.98130859 18.11971191 8.97167969 18.6965332 C8.91795493 21.23608146 8.83431813 23.77379111 8.75 26.3125 C8.72873047 27.63411133 8.72873047 27.63411133 8.70703125 28.98242188 C8.45812087 35.52876499 8.45812087 35.52876499 5.953125 38.10546875 C4.98632812 38.54826172 4.98632812 38.54826172 4 39 C4 38.01 4 37.02 4 36 C2.02 36 0.04 36 -2 36 C-1.67 35.34 -1.34 34.68 -1 34 C-0.84355828 31.44893971 -0.74178611 28.92081337 -0.68359375 26.3671875 C-0.66281265 25.61535187 -0.64203156 24.86351624 -0.62062073 24.08889771 C-0.55517295 21.68435915 -0.49626262 19.27971033 -0.4375 16.875 C-0.39431023 15.24608229 -0.35069579 13.61717578 -0.30664062 11.98828125 C-0.19949649 7.99230085 -0.09821567 3.99620941 0 0 Z M8 14 C9 16 9 16 9 16 Z " fill="#504F51" transform="translate(755,550)"/>
<path d="M0 0 C4.59536976 2.86835171 7.92638075 5.49829192 9.390625 10.8671875 C10.23248811 17.49685948 10.38471009 23.18835289 6.765625 28.9921875 C3.24586541 33.43262495 0.37591846 35.45719012 -5.33984375 36.2421875 C-12.10042 36.65347731 -16.43163213 35.64788694 -21.8359375 31.53125 C-23.96246722 29.53587189 -25.33773366 27.48527261 -26.609375 24.8671875 C-27.269375 24.5371875 -27.929375 24.2071875 -28.609375 23.8671875 C-27.31206005 14.43494471 -26.15121417 7.33162108 -18.609375 0.8671875 C-12.64912479 -1.963433 -6.15269727 -2.67108115 0 0 Z M-17.609375 9.8671875 C-19.77881927 14.56765008 -19.92351301 18.21526251 -18.42578125 23.06640625 C-17.04452399 26.11310289 -15.5557407 27.32995322 -12.609375 28.8671875 C-9.7960277 29.46516618 -7.41236965 29.54670135 -4.609375 28.8671875 C-1.64886626 26.57519347 -1.64886626 26.57519347 0.390625 23.8671875 C0.720625 23.5371875 1.050625 23.2071875 1.390625 22.8671875 C1.51598152 21.26670548 1.56637287 19.66002822 1.578125 18.0546875 C1.59230469 17.18199219 1.60648438 16.30929687 1.62109375 15.41015625 C1.37530724 12.69817287 0.87176746 11.13860396 -0.609375 8.8671875 C-7.28913984 4.71088938 -11.55683132 4.62164964 -17.609375 9.8671875 Z " fill="#4F4E4F" transform="translate(727.609375,551.1328125)"/>
<path d="M0 0 C4.71631563 2.66229406 7.7977668 5.98672722 9.58984375 11.1171875 C11.07473003 17.41970481 10.82139785 22.21616247 7.55078125 27.93359375 C4.84338335 32.11696018 2.48101905 34.60536968 -2.41015625 36.1171875 C-9.85539257 36.94674029 -15.39749871 36.75194435 -21.41015625 32.1171875 C-25.49505922 28.03228453 -27.29195111 23.7618461 -27.48046875 17.94921875 C-27.13487392 12.04361293 -25.28145266 7.59495332 -21.41015625 3.1171875 C-15.27205905 -1.89350409 -7.4975257 -2.74625739 0 0 Z M-16.41015625 9.1171875 C-18.48808863 11.47217753 -19.36435092 13.10947029 -19.5078125 16.265625 C-19.16230168 21.33873503 -18.17063247 24.4706651 -14.41015625 28.1171875 C-11.19907738 29.72272694 -7.89344897 29.59187806 -4.41015625 29.1171875 C-1.03790901 27.21113471 0.26792053 25.77566682 1.96484375 22.3046875 C2.71927885 18.45706851 2.62353302 15.90738148 1.58984375 12.1171875 C-0.98027866 8.53459262 -3.12221131 6.87912857 -7.41015625 6.1171875 C-11.67336542 6.1171875 -13.21561295 6.37900752 -16.41015625 9.1171875 Z " fill="#4D4E4E" transform="translate(517.41015625,550.8828125)"/>
<path d="M0 0 C2.87789993 2.03558776 4.1498011 3.59468584 5.5625 6.8125 C5.5625 8.1325 5.5625 9.4525 5.5625 10.8125 C2.9225 10.8125 0.2825 10.8125 -2.4375 10.8125 C-2.7675 9.4925 -3.0975 8.1725 -3.4375 6.8125 C-6.4075 6.8125 -9.3775 6.8125 -12.4375 6.8125 C-12.7675 8.1325 -13.0975 9.4525 -13.4375 10.8125 C-12.85742188 10.99425781 -12.27734375 11.17601562 -11.6796875 11.36328125 C1.98650667 15.76081898 1.98650667 15.76081898 5.5625 21.8125 C6.16103879 26.00227155 6.06005673 28.01285525 3.8125 31.625 C-0.02632951 35.35719536 -2.98363247 36.1197027 -8.3125 36.1875 C-13.52274492 36.07340705 -16.62147612 35.62852388 -20.4375 31.8125 C-22.02548834 29.1958148 -23.21416337 26.63558452 -24.4375 23.8125 C-21.4675 23.8125 -18.4975 23.8125 -15.4375 23.8125 C-15.1075 24.8025 -14.7775 25.7925 -14.4375 26.8125 C-11.91274538 28.07487731 -10.12549534 27.91106404 -7.3125 27.875 C-6.40242187 27.86597656 -5.49234375 27.85695313 -4.5546875 27.84765625 C-3.85601563 27.83605469 -3.15734375 27.82445312 -2.4375 27.8125 C-3.01385211 25.32797839 -3.01385211 25.32797839 -4.4375 22.8125 C-7.10847082 21.4850468 -7.10847082 21.4850468 -10.25 20.75 C-14.73708577 19.41949558 -18.15732023 18.32697833 -21.4375 14.8125 C-21.4375 14.1525 -21.4375 13.4925 -21.4375 12.8125 C-22.0975 12.4825 -22.7575 12.1525 -23.4375 11.8125 C-21.14184783 3.51684783 -21.14184783 3.51684783 -18.4375 0.8125 C-12.56096027 -2.12576986 -6.14248899 -2.12195074 0 0 Z " fill="#514F52" transform="translate(825.4375,551.1875)"/>
<path d="M0 0 C3 1.3125 3 1.3125 5 3 C5.5775 3.45375 6.155 3.9075 6.75 4.375 C8.39805875 6.51747637 8.71974587 8.33758573 9 11 C8 12 8 12 4.625 12.3125 C2.830625 12.1578125 2.830625 12.1578125 1 12 C0.319375 11.01 0.319375 11.01 -0.375 10 C-1.8040448 7.76851489 -1.8040448 7.76851489 -4.17578125 7.734375 C-6.46191048 7.74859664 -8.72059802 7.82796966 -11 8 C-10.67613187 10.52985528 -10.67613187 10.52985528 -9 13 C-6.79149307 13.730196 -4.61155165 14.08631668 -2.3203125 14.48046875 C1.93414599 15.43306636 4.85205121 17.85205121 7.875 20.875 C9.42510583 23.80297767 9.40090321 25.72595711 9 29 C7.63354022 32.26432059 6.3657106 33.73485981 3.5 35.8125 C-1.95959549 37.66486276 -7.66459336 38.15730302 -13.1953125 36.23828125 C-15.83043835 34.84353891 -17.72950041 33.3881081 -19.4375 30.9375 C-20 29 -20 29 -20 26 C-16.535 25.505 -16.535 25.505 -13 25 C-12.690625 25.66 -12.38125 26.32 -12.0625 27 C-9.54442986 29.44176498 -8.71892628 29.27142406 -5.3125 29.25 C-3.8740202 29.18576167 -2.43583001 29.10836453 -1 29 C-0.67 27.68 -0.34 26.36 0 25 C-1.7634375 24.3503125 -1.7634375 24.3503125 -3.5625 23.6875 C-5.04241302 23.12696657 -6.52157367 22.56444298 -8 22 C-8.64324219 21.76023437 -9.28648437 21.52046875 -9.94921875 21.2734375 C-13.76255434 19.76795577 -16.67936639 18.43453774 -19 15 C-19.59800388 10.29071941 -19.71746637 8.17869474 -17.25 4.125 C-12.08148471 -0.75637555 -6.84174626 -0.67095877 0 0 Z " fill="#4D4F50" transform="translate(466,550)"/>
<path d="M0 0 C2.64 0 5.28 0 8 0 C8.02505615 0.77190674 8.0501123 1.54381348 8.07592773 2.33911133 C8.19184007 5.83041181 8.31458824 9.32143922 8.4375 12.8125 C8.47681641 14.02744141 8.51613281 15.24238281 8.55664062 16.49414062 C8.61948242 18.23920898 8.61948242 18.23920898 8.68359375 20.01953125 C8.72025146 21.09307861 8.75690918 22.16662598 8.79467773 23.27270508 C8.89541847 26.09311553 8.89541847 26.09311553 10 29 C11.43655854 29.08131463 12.8744483 29.13933559 14.3125 29.1875 C15.11300781 29.22230469 15.91351562 29.25710938 16.73828125 29.29296875 C19.01665631 29.17800776 19.01665631 29.17800776 20.609375 27.85546875 C22.57134574 25.23767072 22.43248434 23.26814208 22.51171875 20.01953125 C22.54716797 18.85615234 22.58261719 17.69277344 22.61914062 16.49414062 C22.64169922 15.27919922 22.66425781 14.06425781 22.6875 12.8125 C22.72166016 11.58595703 22.75582031 10.35941406 22.79101562 9.09570312 C22.8735941 6.06389322 22.94271369 3.03237621 23 0 C25.64 0 28.28 0 31 0 C31.08742801 4.20820145 31.14053641 8.41616776 31.1875 12.625 C31.21263672 13.81480469 31.23777344 15.00460937 31.26367188 16.23046875 C31.32580368 23.64486415 31.00079602 28.5303296 26 34.3125 C22.05069524 37.6447259 17.73147511 37.33870999 12.796875 37.2734375 C8.43203798 36.84670762 6.42329744 35.78142917 3 33 C-0.88169822 26.48526173 -0.34510597 19.96998076 -0.1875 12.5625 C-0.16719727 10.74975586 -0.16719727 10.74975586 -0.14648438 8.90039062 C-0.11129946 5.93312918 -0.06206696 2.96680063 0 0 Z " fill="#4E4F4F" transform="translate(583,550)"/>
<path d="M0 0 C10.23 0 20.46 0 31 0 C31 2.64 31 5.28 31 8 C27.04 8 23.08 8 19 8 C19 17.57 19 27.14 19 37 C16.03 36.67 13.06 36.34 10 36 C10.08378906 34.63746094 10.16757812 33.27492188 10.25390625 31.87109375 C10.35713397 30.05991649 10.45997826 28.24871736 10.5625 26.4375 C10.61857422 25.54224609 10.67464844 24.64699219 10.73242188 23.72460938 C11.01202594 18.63581532 10.92865379 14.01473048 10 9 C6.7 8.67 3.4 8.34 0 8 C0 5.36 0 2.72 0 0 Z " fill="#4E4F50" transform="translate(630,550)"/>
<path d="M0 0 C2.64 0 5.28 0 8 0 C8.33 9.57 8.66 19.14 9 29 C14.28 29 19.56 29 25 29 C25.33 31.31 25.66 33.62 26 36 C17.42 36.33 8.84 36.66 0 37 C-1.56544436 33.86911129 -1.00148591 30.57285977 -0.87890625 27.1484375 C-0.85529526 26.37440582 -0.83168427 25.60037415 -0.80735779 24.80288696 C-0.73068562 22.3267397 -0.64667684 19.85090241 -0.5625 17.375 C-0.50928285 15.69793192 -0.45654243 14.02084863 -0.40429688 12.34375 C-0.27506572 8.22896977 -0.13925354 4.11445275 0 0 Z " fill="#4E4F50" transform="translate(545,550)"/>
<path d="M0 0 C0.66 0.66 1.32 1.32 2 2 C-2.15978199 5.89979562 -6.09580217 8.67577397 -11.2734375 11.0546875 C-13.50763983 12.27793855 -14.63807433 13.88144895 -16 16 C-16.66 16 -17.32 16 -18 16 C-18 59.23 -18 102.46 -18 147 C-18.66 147.33 -19.32 147.66 -20 148 C-21.25746201 145.48507597 -21.13429204 143.75612674 -21.14717102 140.94049072 C-21.15432632 139.86940063 -21.16148163 138.79831055 -21.16885376 137.69476318 C-21.17154266 136.51448547 -21.17423157 135.33420776 -21.17700195 134.11816406 C-21.18357315 132.87905273 -21.19014435 131.63994141 -21.19691467 130.36328125 C-21.21668579 126.24739341 -21.2283188 122.13154459 -21.23828125 118.015625 C-21.24232872 116.59860972 -21.24644564 115.18159465 -21.25063133 113.76457977 C-21.26968596 107.10639627 -21.28391555 100.44822386 -21.2922433 93.79001832 C-21.30201262 86.10613948 -21.32832269 78.42254894 -21.36874419 70.73877168 C-21.39891786 64.7989815 -21.41371341 58.85927389 -21.41702431 52.91940856 C-21.41937373 49.37225163 -21.42831909 45.8254026 -21.45348549 42.27832794 C-21.4811251 38.31859646 -21.47693119 34.35924323 -21.4699707 30.39941406 C-21.48278076 29.22723328 -21.49559082 28.05505249 -21.50878906 26.84735107 C-21.46868884 20.59671818 -21.25230664 16.72678605 -17 12 C-15.09301758 10.43261719 -15.09301758 10.43261719 -13.14453125 9.296875 C-12.44005859 8.8740625 -11.73558594 8.45125 -11.00976562 8.015625 C-10.28466797 7.59796875 -9.55957031 7.1803125 -8.8125 6.75 C-7.35813233 5.89493869 -5.9061742 5.0357615 -4.45703125 4.171875 C-3.81741455 3.8015918 -3.17779785 3.43130859 -2.51879883 3.04980469 C-0.83104465 2.06332689 -0.83104465 2.06332689 0 0 Z " fill="#2B8FFB" transform="translate(104,424)"/>
<path d="M0 0 C1.134375 0.020625 2.26875 0.04125 3.4375 0.0625 C4.71703905 3.90542536 4.47016268 7.68400199 4.31640625 11.671875 C4.29279526 12.39868469 4.26918427 13.12549438 4.24485779 13.87432861 C4.16851128 16.18726558 4.08436319 18.49984293 4 20.8125 C3.94675021 22.3840972 3.89401002 23.95571176 3.84179688 25.52734375 C3.71293568 29.37262196 3.57707873 33.21759651 3.4375 37.0625 C-4.21428571 37.20535714 -4.21428571 37.20535714 -7.5625 35.0625 C-6.5725 35.0625 -5.5825 35.0625 -4.5625 35.0625 C-4.56773682 34.03777588 -4.57297363 33.01305176 -4.57836914 31.95727539 C-4.59641969 28.16854724 -4.6079322 24.37982291 -4.61743164 20.59106445 C-4.62247174 18.94880536 -4.62930378 17.30655077 -4.63793945 15.66430664 C-4.65001926 13.30874521 -4.65573139 10.95324291 -4.66015625 8.59765625 C-4.66531754 7.85910904 -4.67047882 7.12056183 -4.67579651 6.3596344 C-4.6759925 4.59351912 -4.62444719 2.82752854 -4.5625 1.0625 C-3.5625 0.0625 -3.5625 0.0625 0 0 Z " fill="#4D4D4E" transform="translate(679.5625,549.9375)"/>
<path d="M0 0 C0.33 0 0.66 0 1 0 C1.59153507 31.39510565 2.10170053 62.78616794 2.125 94.1875 C2.12749756 95.36401123 2.12999512 96.54052246 2.13256836 97.75268555 C2.1384519 101.09947669 2.13699258 104.44617665 2.1328125 107.79296875 C2.13479645 108.75607468 2.1367804 109.7191806 2.13882446 110.71147156 C2.07377212 129.92622788 2.07377212 129.92622788 -1 133 C-1.02333692 115.95426486 -1.04098308 98.90853469 -1.05181217 81.86278725 C-1.05697344 73.94855847 -1.06401293 66.0343396 -1.07543945 58.12011719 C-1.08539145 51.22390943 -1.09185466 44.32770885 -1.09408849 37.43149412 C-1.09539472 33.77836238 -1.09847505 30.12525118 -1.10573006 26.47212601 C-1.11375414 22.39888845 -1.1139908 18.32568684 -1.11352539 14.25244141 C-1.11712067 13.03468521 -1.12071594 11.81692902 -1.12442017 10.56227112 C-1.12235817 8.90476585 -1.12235817 8.90476585 -1.12025452 7.21377563 C-1.12117631 6.24958017 -1.1220981 5.28538471 -1.12304783 4.29197121 C-1 2 -1 2 0 0 Z " fill="#864CFA" transform="translate(303,437)"/>
<path d="M0 0 C0.33 0.66 0.66 1.32 1 2 C4.3 2 7.6 2 11 2 C11.33 9.59 11.66 17.18 12 25 C14.64 23.68 17.28 22.36 20 21 C26.31399661 19.84582858 31.79249477 20.77486212 37.44140625 23.734375 C39.32809455 25.26642264 40.06300026 26.78103544 41 29 C40.45730469 28.65066406 39.91460938 28.30132812 39.35546875 27.94140625 C38.64003906 27.48636719 37.92460938 27.03132813 37.1875 26.5625 C36.47980469 26.11003906 35.77210938 25.65757812 35.04296875 25.19140625 C30.53131215 22.56032544 26.08473614 22.37570283 21 23 C18.77298739 23.84618787 16.79060392 24.84243108 14.7265625 26.02734375 C13 27 13 27 10 28 C8.67084979 20.02509872 8.91198641 12.05813281 9 4 C5.04 4 1.08 4 -3 4 C-3 27.1 -3 50.2 -3 74 C1.29 74 5.58 74 10 74 C9.98428955 72.98574951 9.9685791 71.97149902 9.95239258 70.92651367 C9.89809681 67.16389913 9.86365149 63.40131922 9.83520508 59.63842773 C9.82011757 58.00978777 9.79964494 56.38118844 9.77368164 54.75268555 C9.73729551 52.41184465 9.7202738 50.07154081 9.70703125 47.73046875 C9.69154739 47.00224411 9.67606354 46.27401947 9.66011047 45.52372742 C9.65841969 40.44615804 9.65841969 40.44615804 11.51831055 38.0168457 C12.00726807 37.68128662 12.49622559 37.34572754 13 37 C12.76228882 37.7410498 12.76228882 37.7410498 12.51977539 38.49707031 C11.79279058 41.99779755 11.76349754 45.48527031 11.68359375 49.046875 C11.66281265 49.81807678 11.64203156 50.58927856 11.62062073 51.3838501 C11.55541428 53.83914572 11.49637516 56.29454521 11.4375 58.75 C11.39428726 60.41797935 11.3506721 62.08594832 11.30664062 63.75390625 C11.19976264 67.83583196 11.09841434 71.91786182 11 76 C6.05 76 1.1 76 -4 76 C-4 52.24 -4 28.48 -4 4 C-4.99 3.67 -5.98 3.34 -7 3 C-3.535 2.505 -3.535 2.505 0 2 C0 1.34 0 0.68 0 0 Z " fill="#6644D5" transform="translate(815,444)"/>
<path d="M0 0 C1.58206057 0.00667536 3.16410534 0.0186375 4.74609375 0.03515625 C5.55240234 0.03966797 6.35871094 0.04417969 7.18945312 0.04882812 C9.18753131 0.06065107 11.18557158 0.07858711 13.18359375 0.09765625 C13.18359375 1.08765625 13.18359375 2.07765625 13.18359375 3.09765625 C8.23359375 2.76765625 3.28359375 2.43765625 -1.81640625 2.09765625 C-2.14640625 25.19765625 -2.47640625 48.29765625 -2.81640625 72.09765625 C1.14359375 72.09765625 5.10359375 72.09765625 9.18359375 72.09765625 C9.18359375 56.58765625 9.18359375 41.07765625 9.18359375 25.09765625 C10.96715553 28.6647798 11.43381996 29.62574728 11.42651367 33.28369141 C11.4295903 34.09778473 11.43266693 34.91187805 11.43583679 35.75064087 C11.42865128 36.62054657 11.42146576 37.49045227 11.4140625 38.38671875 C11.41337517 39.73617081 11.41337517 39.73617081 11.41267395 41.11288452 C11.40965737 43.01081668 11.40178886 44.90874648 11.3894043 46.80664062 C11.37111772 49.71883868 11.36889491 52.6307192 11.36914062 55.54296875 C11.36422633 57.38672151 11.35839839 59.23047211 11.3515625 61.07421875 C11.35044968 61.94817291 11.34933685 62.82212708 11.34819031 63.7225647 C11.29967393 69.86549588 11.29967393 69.86549588 10.18359375 72.09765625 C10.84359375 72.42765625 11.50359375 72.75765625 12.18359375 73.09765625 C9.18045627 74.59922499 6.39291853 74.19046829 3.05859375 74.16015625 C1.13660156 74.14662109 1.13660156 74.14662109 -0.82421875 74.1328125 C-1.81164062 74.12121094 -2.7990625 74.10960937 -3.81640625 74.09765625 C-4.94434071 70.48226907 -4.94332825 67.09790783 -4.94580078 63.32543945 C-4.9475531 62.65346527 -4.94930542 61.98149109 -4.95111084 61.28915405 C-4.95550036 59.07555535 -4.95260259 56.86203697 -4.94921875 54.6484375 C-4.94989238 53.10955286 -4.95086291 51.57066833 -4.95211792 50.03178406 C-4.95359076 46.81146224 -4.95145273 43.5911682 -4.94677734 40.37084961 C-4.9410659 36.2345399 -4.94437059 32.09829486 -4.95034981 27.9619875 C-4.95395433 24.78709928 -4.95281759 21.61222654 -4.95022202 18.43733788 C-4.94955319 16.91143982 -4.95037964 15.38554037 -4.95270157 13.85964394 C-4.95522786 11.73362089 -4.95138854 9.6077045 -4.94580078 7.48168945 C-4.94500519 6.2701973 -4.94420959 5.05870514 -4.94338989 3.8105011 C-4.74547634 -0.41767163 -4.42724072 0.11328661 0 0 Z " fill="#654ADB" transform="translate(569.81640625,445.90234375)"/>
<path d="M0 0 C2.9375 2.0625 2.9375 2.0625 5 5 C5.62491523 8.95779649 5.61006839 11.00863886 3.5 14.4375 C-0.0230819 16.63942619 -2.94929889 16.56560098 -7 16 C-9.81009519 14.99124788 -10.66697708 14.66604583 -12 12 C-12.28394278 9.06592458 -12.48994001 6.84953616 -12 4 C-8.52445854 -0.21277753 -5.30670762 -0.85286372 0 0 Z " fill="#744BF1" transform="translate(882,444)"/>
<path d="M0 0 C0 2.44218841 -0.08181718 4.83819183 -0.21435547 7.27490234 C-0.87680835 20.07498915 -1.1579064 32.83718418 -1.13037109 45.65380859 C-1.1249393 48.65857843 -1.13039907 51.66320296 -1.13671875 54.66796875 C-1.13964581 64.15925424 -1.10068506 73.56018395 0 83 C4.455 82.505 4.455 82.505 9 82 C4.13888889 86.86111111 4.13888889 86.86111111 0.4375 87.3125 C-0.366875 87.209375 -1.17125 87.10625 -2 87 C-4.4001383 83.39979255 -4.2480747 81.79490033 -4.24291992 77.51586914 C-4.24576744 76.53463074 -4.24576744 76.53463074 -4.24867249 75.53356934 C-4.25238077 73.36731017 -4.24166518 71.20138577 -4.23046875 69.03515625 C-4.22927554 67.52119486 -4.22882409 66.00723272 -4.2290802 64.49327087 C-4.22751459 61.31309395 -4.21922691 58.13302947 -4.20581055 54.95288086 C-4.18895105 50.90841879 -4.18499262 46.86408174 -4.18575573 42.81958866 C-4.18548131 39.68713725 -4.17995488 36.55471232 -4.17275429 33.42226982 C-4.16960451 31.93337644 -4.167609 30.4444801 -4.16686058 28.95558357 C-4.1409832 4.34907094 -4.1409832 4.34907094 -1.45768738 1.17640686 C-0.73613213 0.59408546 -0.73613213 0.59408546 0 0 Z " fill="#7D52F8" transform="translate(225,530)"/>
<path d="M0 0 C0.33 8.25 0.66 16.5 1 25 C2.98 23.68 4.96 22.36 7 21 C10.01490557 19.99503148 12.04181692 19.89664697 15.1875 19.9375 C16.08855469 19.94652344 16.98960937 19.95554687 17.91796875 19.96484375 C18.60503906 19.97644531 19.29210937 19.98804688 20 20 C20 20.33 20 20.66 20 21 C19.443125 21.02578125 18.88625 21.0515625 18.3125 21.078125 C13.13969628 21.46259014 9.33442433 22.49064273 4.82421875 25.0625 C3 26 3 26 -1 27 C-1 18.75 -1 10.5 -1 2 C-4.96 2 -8.92 2 -13 2 C-13 25.43 -13 48.86 -13 73 C-9.04 73 -5.08 73 -1 73 C-1.01571045 72.01604248 -1.0314209 71.03208496 -1.04760742 70.01831055 C-1.10190978 66.36751492 -1.13635085 62.71675499 -1.16479492 59.06567383 C-1.17988094 57.48553464 -1.2003525 55.90543731 -1.22631836 54.32543945 C-1.26271126 52.05409415 -1.27972762 49.78330241 -1.29296875 47.51171875 C-1.30845261 46.80536789 -1.32393646 46.09901703 -1.33988953 45.3712616 C-1.34158031 40.44308222 -1.34158031 40.44308222 0.51831055 38.03051758 C1.00726807 37.69044678 1.49622559 37.35037598 2 37 C1.83628906 37.6712793 1.67257812 38.34255859 1.50390625 39.03417969 C0.9050955 42.55857553 0.90578927 45.87774057 0.9375 49.453125 C0.94128662 50.15395203 0.94507324 50.85477905 0.94897461 51.57684326 C0.96113245 53.80129315 0.97977827 56.02560971 1 58.25 C1.02649948 61.19270445 1.04651265 64.13534686 1.0625 67.078125 C1.07410156 68.38168945 1.08570313 69.68525391 1.09765625 71.02832031 C1 74 1 74 0 75 C-2.31074168 75.09932392 -4.62462942 75.12969618 -6.9375 75.125 C-8.83822266 75.12886719 -8.83822266 75.12886719 -10.77734375 75.1328125 C-14 75 -14 75 -16 74 C-15.505 73.01 -15.505 73.01 -15 72 C-14.91319037 69.7891432 -14.89297007 67.57557769 -14.90234375 65.36303711 C-14.90380402 64.68160141 -14.90526428 64.00016571 -14.9067688 63.29808044 C-14.91057719 61.81717646 -14.91669629 60.33627706 -14.92483521 58.85539055 C-14.93756605 56.51520249 -14.94410575 54.17507088 -14.94897461 51.83485413 C-14.96041846 46.86904412 -14.97966756 41.90328053 -15 36.9375 C-15.02354951 31.18158366 -15.04395373 25.42569372 -15.05593872 19.66974068 C-15.06244889 17.35799269 -15.07495613 15.04632504 -15.08764648 12.73460388 C-15.09127709 11.32559277 -15.09462906 9.9165809 -15.09765625 8.50756836 C-15.10289307 7.2722789 -15.10812988 6.03698944 -15.11352539 4.76426697 C-15 2 -15 2 -14 1 C-11.83801065 0.76462213 -9.66968335 0.58607614 -7.5 0.4375 C-6.3140625 0.35371094 -5.128125 0.26992188 -3.90625 0.18359375 C-1 0 -1 0 0 0 Z " fill="#12518E" transform="translate(521,445)"/>
<path d="M0 0 C0.33 0.66 0.66 1.32 1 2 C5.62 1.67 10.24 1.34 15 1 C15.02463993 8.67211673 15.04283123 16.34421065 15.05493164 24.01635742 C15.05997377 26.62866619 15.06680725 29.24097211 15.07543945 31.85327148 C15.08751036 35.59880268 15.09322935 39.34429672 15.09765625 43.08984375 C15.10281754 44.26586655 15.10797882 45.44188934 15.11329651 46.65354919 C15.11340981 48.27511681 15.11340981 48.27511681 15.11352539 49.92944336 C15.115746 50.88652695 15.11796661 51.84361053 15.12025452 52.82969666 C15 55 15 55 14 56 C11.64686445 56.07271741 9.29166332 56.08370868 6.9375 56.0625 C5.64714844 56.05347656 4.35679687 56.04445313 3.02734375 56.03515625 C2.02832031 56.02355469 1.02929688 56.01195312 0 56 C-0.16891862 49.79291116 -0.329326 43.58567914 -0.48217773 37.37817383 C-0.53523161 35.2706932 -0.59052725 33.16326767 -0.64819336 31.0559082 C-0.73113766 28.01004926 -0.80575997 24.96407694 -0.87890625 21.91796875 C-0.90594131 20.99042282 -0.93297638 20.06287689 -0.96083069 19.10722351 C-1.10449162 12.67271828 -0.70527128 6.39598775 0 0 Z M1 3 C1 19.83 1 36.66 1 54 C4.96 54 8.92 54 13 54 C13 37.17 13 20.34 13 3 C9.04 3 5.08 3 1 3 Z " fill="#6948DB" transform="translate(871,464)"/>
<path d="M0 0 C4.95 0 9.9 0 15 0 C15.66 2.31 16.32 4.62 17 7 C17.33 6.34 17.66 5.68 18 5 C18.66 5 19.32 5 20 5 C18.63016497 8.16115776 18.0109362 8.9927092 15 11 C15 8.36 15 5.72 15 3 C11.04 3 7.08 3 3 3 C3 25.77 3 48.54 3 72 C6.96 72 10.92 72 15 72 C15 64.08 15 56.16 15 48 C17.475 50.475 17.475 50.475 20 53 C19.01 53 18.02 53 17 53 C17.01047363 53.55985596 17.02094727 54.11971191 17.03173828 54.6965332 C17.07333326 57.23514307 17.09933685 59.7736812 17.125 62.3125 C17.15013672 63.63411133 17.15013672 63.63411133 17.17578125 64.98242188 C17.18222656 65.82998047 17.18867187 66.67753906 17.1953125 67.55078125 C17.20578613 68.33106689 17.21625977 69.11135254 17.22705078 69.9152832 C17 72 17 72 15 75 C14.34 74.67 13.68 74.34 13 74 C11.12620395 73.92966231 9.24998898 73.9156978 7.375 73.9375 C5.87066406 73.95103516 5.87066406 73.95103516 4.3359375 73.96484375 C3.56507813 73.97644531 2.79421875 73.98804688 2 74 C0.85814309 70.57442926 0.88674753 67.96996668 0.90234375 64.35717773 C0.90380402 63.68695587 0.90526428 63.01673401 0.9067688 62.32620239 C0.91057124 60.87260132 0.91668407 59.41900487 0.92483521 57.96542168 C0.93759274 55.66688485 0.94411264 53.36840569 0.94897461 51.06983948 C0.96040505 46.19236712 0.97965339 41.31494225 1 36.4375 C1.02357034 30.78283593 1.04396802 25.12819894 1.05593872 19.47349739 C1.06243707 17.2055564 1.07494403 14.93769806 1.08764648 12.66978455 C1.09127787 11.28433302 1.09462974 9.89888072 1.09765625 8.51342773 C1.10289307 7.30113998 1.10812988 6.08885223 1.11352539 4.83982849 C1.19695104 2.0512942 1.19695104 2.0512942 0 0 Z " fill="#6645D7" transform="translate(748,464)"/>
<path d="M0 0 C2.64 0.33 5.28 0.66 8 1 C8.99 0.67 9.98 0.34 11 0 C13.125 0.625 13.125 0.625 15 2 C15.75 4.625 15.75 4.625 16 7 C16.66 6.67 17.32 6.34 18 6 C16.25 10.875 16.25 10.875 14 12 C12.5216774 9.04335481 12.93967217 6.25770263 13 3 C9.04 3 5.08 3 1 3 C1.33 19.83 1.66 36.66 2 54 C5.96 54 9.92 54 14 54 C13.98952637 53.10168457 13.97905273 52.20336914 13.96826172 51.27783203 C13.9342053 47.94935553 13.90911382 44.62106378 13.89013672 41.29248047 C13.88007037 39.85104453 13.8664162 38.40962905 13.84912109 36.96826172 C13.82489988 34.89806066 13.81352359 32.82812924 13.8046875 30.7578125 C13.79421387 29.5114502 13.78374023 28.26508789 13.77294922 26.98095703 C14 24 14 24 16 22 C15.88204075 26.68157901 15.75781451 31.36293288 15.62768555 36.04418945 C15.58427854 37.637893 15.54260781 39.2316448 15.50268555 40.82543945 C15.44512193 43.11163908 15.38138851 45.39759449 15.31640625 47.68359375 C15.29133751 48.7586039 15.29133751 48.7586039 15.26576233 49.85533142 C15.11387171 54.88612829 15.11387171 54.88612829 14 56 C9.38 56 4.76 56 0 56 C0 37.52 0 19.04 0 0 Z " fill="#6C4BD9" transform="translate(710,464)"/>
<path d="M0 0 C0.66 0.66 1.32 1.32 2 2 C-2.15978199 5.89979562 -6.09580217 8.67577397 -11.2734375 11.0546875 C-13.50763983 12.27793855 -14.63807433 13.88144895 -16 16 C-16.66 16 -17.32 16 -18 16 C-17.99777939 16.69553986 -17.99555878 17.39107971 -17.99327087 18.10769653 C-17.97307029 24.72559675 -17.95792647 31.34348812 -17.94818783 37.96141243 C-17.9430125 41.36214662 -17.9360146 44.76285492 -17.92456055 48.16357422 C-17.9123014 52.090827 -17.90672766 56.01804393 -17.90234375 59.9453125 C-17.89718246 61.1417337 -17.89202118 62.33815491 -17.88670349 63.5708313 C-17.88617079 71.75310364 -18.31650052 79.84692801 -19 88 C-19.33 88 -19.66 88 -20 88 C-20.35797891 75.53738331 -20.67367725 63.07423705 -20.94281006 50.609375 C-20.99651989 48.15878529 -21.05393021 45.70830641 -21.11181641 43.2578125 C-21.20608892 39.13032568 -21.26256765 35.00326079 -21.3125 30.875 C-21.34214844 29.65151855 -21.37179688 28.42803711 -21.40234375 27.16748047 C-21.43475885 22.43014823 -21.39072963 18.9009051 -19.4921875 14.5234375 C-16.2577613 11.24845423 -12.78451801 9.03788237 -8.8125 6.75 C-7.35813233 5.89493869 -5.9061742 5.0357615 -4.45703125 4.171875 C-3.81741455 3.8015918 -3.17779785 3.43130859 -2.51879883 3.04980469 C-0.83104465 2.06332689 -0.83104465 2.06332689 0 0 Z " fill="#279EFD" transform="translate(104,424)"/>
<path d="M0 0 C0.66 0 1.32 0 2 0 C3.26344097 6.58305916 3.22233899 13.11994409 3.24023438 19.79492188 C3.24997285 21.99386976 3.28106149 24.19189448 3.3125 26.390625 C3.31902857 27.80207784 3.32427962 29.2135373 3.328125 30.625 C3.34214355 32.53152344 3.34214355 32.53152344 3.35644531 34.4765625 C2.77699763 40.20436312 0.42670017 44.35448221 -4 48 C-5.64363134 48.72159424 -7.31050386 49.39351421 -9 50 C-9.99 50.66 -10.98 51.32 -12 52 C-12.99 52 -13.98 52 -15 52 C-15 52.66 -15 53.32 -15 54 C-16.00160156 54.53109375 -17.00320312 55.0621875 -18.03515625 55.609375 C-19.37763436 56.32285987 -20.72008057 57.03640475 -22.0625 57.75 C-22.71927734 58.09804688 -23.37605469 58.44609375 -24.05273438 58.8046875 C-24.70693359 59.15273438 -25.36113281 59.50078125 -26.03515625 59.859375 C-26.69273926 60.20806641 -27.35032227 60.55675781 -28.02783203 60.91601562 C-29.99387028 61.99663086 -31.89487728 63.15804421 -33.80859375 64.328125 C-34.86175781 64.87984375 -35.91492188 65.4315625 -37 66 C-37.99 65.67 -38.98 65.34 -40 65 C-39.28046143 64.5875 -38.56092285 64.175 -37.81958008 63.75 C-29.86759852 59.18746067 -21.92694227 54.60589853 -14 50 C-13.17790039 49.52240234 -12.35580078 49.04480469 -11.50878906 48.55273438 C-9.64471408 47.46296746 -7.78885134 46.36119817 -5.9375 45.25 C-4.97714844 44.67765625 -4.01679688 44.1053125 -3.02734375 43.515625 C-0.71128422 42.08464953 -0.71128422 42.08464953 0 39 C0.085409 36.05035887 0.11582927 33.12496981 0.09765625 30.17578125 C0.09553383 28.88367989 0.09553383 28.88367989 0.09336853 27.56547546 C0.0877714 24.81444831 0.07521946 22.06350256 0.0625 19.3125 C0.05748463 17.4472668 0.05292179 15.58203233 0.04882812 13.71679688 C0.03780292 9.14449989 0.02054027 4.57226375 0 0 Z " fill="#7A5AF8" transform="translate(266,464)"/>
<path d="M0 0 C0.33 0 0.66 0 1 0 C1.09257354 12.33458505 1.16370078 24.66908782 1.20724869 37.00394917 C1.22814677 42.7311916 1.2565052 48.45819684 1.30175781 54.18530273 C1.34513595 59.70958483 1.36912036 65.2336384 1.37950897 70.75807762 C1.38691477 72.86848742 1.4013761 74.97888434 1.42292023 77.08919716 C1.4518472 80.03931592 1.45596046 82.98848356 1.45410156 85.9387207 C1.47567322 87.2550222 1.47567322 87.2550222 1.49768066 88.59791565 C1.4573648 94.4889058 1.4573648 94.4889058 -0.8526001 97.07023621 C-4.00375659 98.43459839 -5.72008965 97.96467952 -9 97 C-11.43390483 95.78549618 -13.68271939 94.43671398 -16 93 C-14.515 92.505 -14.515 92.505 -13 92 C-12.01 92.66 -11.02 93.32 -10 94 C-7.35982365 94.81779841 -4.69729409 95.3809489 -2 96 C-2 95.34 -2 94.68 -2 94 C-1.34 94 -0.68 94 0 94 C-0.33 93.34 -0.66 92.68 -1 92 C-1.09746584 89.64916656 -1.12797449 87.29547957 -1.12939453 84.94262695 C-1.13114685 84.21540436 -1.13289917 83.48818176 -1.13470459 82.73892212 C-1.13912251 80.32201786 -1.13618137 77.90518633 -1.1328125 75.48828125 C-1.1334865 73.80071499 -1.13445734 72.11314882 -1.13571167 70.42558289 C-1.13718933 66.87542809 -1.1350354 63.32529837 -1.13037109 59.77514648 C-1.12473031 55.2657456 -1.12791601 50.75640499 -1.13394356 46.24700642 C-1.13759604 42.7524319 -1.13638836 39.25787111 -1.13381577 35.76329613 C-1.13315641 34.10383281 -1.13393954 32.44436817 -1.13629532 30.78490639 C-1.14769765 20.47636806 -0.83342054 10.27780391 0 0 Z " fill="#645DF1" transform="translate(192,536)"/>
<path d="M0 0 C3 1 3 1 4.17529297 2.57324219 C5.33399254 5.98279628 5.24608596 9.27160483 5.1953125 12.828125 C5.1924826 13.57713074 5.18965271 14.32613647 5.18673706 15.09783936 C5.1755726 17.48205776 5.15047531 19.86589579 5.125 22.25 C5.11496535 23.86978623 5.10584035 25.48957836 5.09765625 27.109375 C5.07564555 31.07306246 5.04114175 35.03646681 5 39 C8.96 39 12.92 39 17 39 C17 27.78 17 16.56 17 5 C17.33 5 17.66 5 18 5 C19.42264277 33.10097832 19.42264277 33.10097832 19 40 C18 41 18 41 14.83984375 41.09765625 C13.55207031 41.08605469 12.26429688 41.07445312 10.9375 41.0625 C9.64714844 41.05347656 8.35679687 41.04445313 7.02734375 41.03515625 C6.02832031 41.02355469 5.02929688 41.01195312 4 41 C3.97812622 39.56333984 3.97812622 39.56333984 3.95581055 38.09765625 C3.89741637 34.51151989 3.82019016 30.92598474 3.73754883 27.34033203 C3.70449138 25.79453357 3.67640097 24.24861996 3.65356445 22.70263672 C3.57966463 11.01372317 3.57966463 11.01372317 0 0 Z " fill="#1F5397" transform="translate(537,479)"/>
<path d="M0 0 C0.33 0.66 0.66 1.32 1 2 C4.3 2 7.6 2 11 2 C11.33 9.59 11.66 17.18 12 25 C14.64 23.68 17.28 22.36 20 21 C26.31399661 19.84582858 31.79249477 20.77486212 37.44140625 23.734375 C39.32809455 25.26642264 40.06300026 26.78103544 41 29 C40.45730469 28.65066406 39.91460938 28.30132812 39.35546875 27.94140625 C38.64003906 27.48636719 37.92460938 27.03132813 37.1875 26.5625 C36.47980469 26.11003906 35.77210938 25.65757812 35.04296875 25.19140625 C30.53131215 22.56032544 26.08473614 22.37570283 21 23 C18.77298739 23.84618787 16.79060392 24.84243108 14.7265625 26.02734375 C13 27 13 27 10 28 C8.67084979 20.02509872 8.91198641 12.05813281 9 4 C5.04 4 1.08 4 -3 4 C-3 5.65 -3 7.3 -3 9 C-3.33 9 -3.66 9 -4 9 C-4 7.35 -4 5.7 -4 4 C-4.99 3.67 -5.98 3.34 -7 3 C-3.535 2.505 -3.535 2.505 0 2 C0 1.34 0 0.68 0 0 Z " fill="#6F4CDA" transform="translate(815,444)"/>
<path d="M0 0 C18.81 0 37.62 0 57 0 C57 0.33 57 0.66 57 1 C38.52 1 20.04 1 1 1 C1 4.63 1 8.26 1 12 C7.93 12 14.86 12 22 12 C21.34 13.98 20.68 15.96 20 18 C19.34 17.67 18.68 17.34 18 17 C18 16.34 18 15.68 18 15 C12.39 14.67 6.78 14.34 1 14 C0.67 14.99 0.34 15.98 0 17 C-1.2279753 10.72368182 -0.68422071 6.84220706 0 0 Z " fill="#2561A4" transform="translate(345,446)"/>
<path d="M0 0 C0.33 0 0.66 0 1 0 C1.84086132 8.09329023 2.10841979 16.11809874 2.125 24.25 C2.12951172 25.19125732 2.13402344 26.13251465 2.13867188 27.10229492 C2.13673828 27.98119385 2.13480469 28.86009277 2.1328125 29.765625 C2.13112061 30.95333496 2.13112061 30.95333496 2.12939453 32.16503906 C2 34 2 34 1 35 C0.84259395 36.70563778 0.74906608 38.41727244 0.68359375 40.12890625 C0.64169922 41.16337891 0.59980469 42.19785156 0.55664062 43.26367188 C0.51732422 44.35228516 0.47800781 45.44089844 0.4375 46.5625 C0.39431641 47.65498047 0.35113281 48.74746094 0.30664062 49.87304688 C0.20017932 52.58189564 0.09816484 55.29083992 0 58 C-0.33 58 -0.66 58 -1 58 C-1.02312883 50.58540058 -1.04091785 43.17080889 -1.05181217 35.75618076 C-1.05703982 32.31359652 -1.06413531 28.87103688 -1.07543945 25.4284668 C-1.08834235 21.47444957 -1.09322918 17.52044244 -1.09765625 13.56640625 C-1.10281754 12.32476212 -1.10797882 11.08311798 -1.11329651 9.80384827 C-1.11337204 8.66274094 -1.11344757 7.52163361 -1.11352539 6.34594727 C-1.115746 5.335569 -1.11796661 4.32519073 -1.12025452 3.28419495 C-1 1 -1 1 0 0 Z " fill="#3A84FC" transform="translate(161,485)"/>
<path d="M0 0 C3.13372105 2.56395358 3.9450357 5.14392361 5 9 C5.1953125 12.4296875 5.1953125 12.4296875 5.125 15.875 C5.10695313 17.02742188 5.08890625 18.17984375 5.0703125 19.3671875 C5.04710937 20.23601562 5.02390625 21.10484375 5 22 C0.8015471 24.09922645 -1.45969874 23.84865444 -6 23 C-9.50058288 22.88933265 -12.99839803 22.95116315 -16.5 23 C-27.58762887 23.15463918 -27.58762887 23.15463918 -33 22 C-33 21.67 -33 21.34 -33 21 C-20.79 21 -8.58 21 4 21 C2.62680416 10.18153317 2.62680416 10.18153317 0 0 Z " fill="#0F5191" transform="translate(440,475)"/>
<path d="M0 0 C0.66 0.66 1.32 1.32 2 2 C-2.15978199 5.89979562 -6.09580217 8.67577397 -11.2734375 11.0546875 C-13.50763983 12.27793855 -14.63807433 13.88144895 -16 16 C-16.66 16 -17.32 16 -18 16 C-18.66 19.3 -19.32 22.6 -20 26 C-20.33 26 -20.66 26 -21 26 C-21.42884159 19.78179701 -21.10777943 17.02704776 -17 12 C-14.40038523 10.01650723 -11.64338454 8.3805895 -8.8125 6.75 C-7.35813233 5.89493869 -5.9061742 5.0357615 -4.45703125 4.171875 C-3.81741455 3.8015918 -3.17779785 3.43130859 -2.51879883 3.04980469 C-0.83104465 2.06332689 -0.83104465 2.06332689 0 0 Z " fill="#2E9AF6" transform="translate(104,424)"/>
<path d="M0 0 C0.66 0.99 1.32 1.98 2 3 C-1.78729238 5.34049156 -5.58052985 7.67116642 -9.375 10 C-10.45523437 10.66773438 -11.53546875 11.33546875 -12.6484375 12.0234375 C-14.1953125 12.97089844 -14.1953125 12.97089844 -15.7734375 13.9375 C-16.72653809 14.52402344 -17.67963867 15.11054687 -18.66162109 15.71484375 C-21 17 -21 17 -23 17 C-23 16.34 -23 15.68 -23 15 C-17.25 12 -17.25 12 -15 12 C-15 11.34 -15 10.68 -15 10 C-14.01 10 -13.02 10 -12 10 C-11.67 9.34 -11.34 8.68 -11 8 C-5.58823529 4 -5.58823529 4 -2 4 C-2 3.34 -2 2.68 -2 2 C-1.34 2 -0.68 2 0 2 C0 1.34 0 0.68 0 0 Z " fill="#854DF3" transform="translate(279,582)"/>
<path d="M0 0 C4.95 0 9.9 0 15 0 C15.66 2.31 16.32 4.62 17 7 C17.33 6.34 17.66 5.68 18 5 C18.66 5 19.32 5 20 5 C18.63016497 8.16115776 18.0109362 8.9927092 15 11 C15 8.36 15 5.72 15 3 C14.16855469 3.03480469 13.33710937 3.06960938 12.48046875 3.10546875 C10.85044922 3.14607422 10.85044922 3.14607422 9.1875 3.1875 C8.10855469 3.22230469 7.02960937 3.25710938 5.91796875 3.29296875 C3 3 3 3 0 0 Z " fill="#714EDB" transform="translate(748,464)"/>
<path d="M0 0 C0.66 0.66 1.32 1.32 2 2 C-1.28380602 4.03382681 -4.57821272 6.04979562 -7.875 8.0625 C-8.81214844 8.64322266 -9.74929687 9.22394531 -10.71484375 9.82226562 C-11.61074219 10.36689453 -12.50664062 10.91152344 -13.4296875 11.47265625 C-14.25710449 11.98062744 -15.08452148 12.48859863 -15.93701172 13.01196289 C-16.61779785 13.33801514 -17.29858398 13.66406738 -18 14 C-18.66 13.67 -19.32 13.34 -20 13 C-10.91891892 5 -10.91891892 5 -6 5 C-5.67 4.01 -5.34 3.02 -5 2 C-2.4375 0.8125 -2.4375 0.8125 0 0 Z " fill="#824DF5" transform="translate(254,598)"/>
<path d="M0 0 C0.33 0.66 0.66 1.32 1 2 C0.67 2.66 0.34 3.32 0 4 C6.93 4.495 6.93 4.495 14 5 C14.33 4.34 14.66 3.68 15 3 C15 3.99 15 4.98 15 6 C11.69005287 7.65497356 8.00877 7.10084335 4.375 7.0625 C3.57320312 7.05798828 2.77140625 7.05347656 1.9453125 7.04882812 C-0.03649006 7.03703168 -2.01825433 7.01909605 -4 7 C-2.68 4.69 -1.36 2.38 0 0 Z " fill="#6A4DD5" transform="translate(895,513)"/>
<path d="M0 0 C0.66 0 1.32 0 2 0 C2 2.64 2 5.28 2 8 C6.95 8 11.9 8 17 8 C15 10 15 10 11.7421875 10.1953125 C10.46601562 10.17210937 9.18984375 10.14890625 7.875 10.125 C5.95300781 10.09792969 5.95300781 10.09792969 3.9921875 10.0703125 C2.51105469 10.03550781 2.51105469 10.03550781 1 10 C0.05685873 6.58389775 -0.08065117 3.54865136 0 0 Z " fill="#614ECD" transform="translate(565,510)"/>
<path d="M0 0 C5.28 0 10.56 0 16 0 C16 0.99 16 1.98 16 3 C15.01 3.495 15.01 3.495 14 4 C14 3.34 14 2.68 14 2 C11.70800823 2.14063135 9.41640814 2.28765943 7.125 2.4375 C5.84882812 2.51871094 4.57265625 2.59992188 3.2578125 2.68359375 C0.11699848 2.79206027 0.11699848 2.79206027 -2 4 C-1.34 2.68 -0.68 1.36 0 0 Z " fill="#6D50D1" transform="translate(929,465)"/>
<path d="M0 0 C6.30289384 1.73329581 12.31937877 4.47906816 16 10 C15.67 10.99 15.34 11.98 15 13 C13.5 11.625 13.5 11.625 12 10 C12 9.34 12 8.68 12 8 C11.42765625 7.71382813 10.8553125 7.42765625 10.265625 7.1328125 C6.84375 5.421875 3.421875 3.7109375 0 2 C0 1.34 0 0.68 0 0 Z " fill="#6769F2" transform="translate(287,424)"/>
<path d="M0 0 C0.33 0 0.66 0 1 0 C1 7.92 1 15.84 1 24 C1.66 24 2.32 24 3 24 C2.67 25.32 2.34 26.64 2 28 C0 26 0 26 -0.22705078 23.38623047 C-0.21657715 22.30744629 -0.20610352 21.22866211 -0.1953125 20.1171875 C-0.18886719 18.95058594 -0.18242188 17.78398438 -0.17578125 16.58203125 C-0.15902344 15.35871094 -0.14226562 14.13539063 -0.125 12.875 C-0.11597656 11.64394531 -0.10695313 10.41289063 -0.09765625 9.14453125 C-0.07402548 6.09616185 -0.04108054 3.04817618 0 0 Z " fill="#3084F7" transform="translate(83,544)"/>
<path d="M0 0 C4.46182436 1.31074365 7.99618757 3.07066011 11.875 5.625 C12.84179688 6.25664062 13.80859375 6.88828125 14.8046875 7.5390625 C15.52914062 8.02117187 16.25359375 8.50328125 17 9 C15.1875 9.61328125 15.1875 9.61328125 13 10 C10 8.1875 10 8.1875 7 6 C5.6808418 5.30570621 4.35350594 4.62469505 3 4 C3 3.34 3 2.68 3 2 C2.01 1.67 1.02 1.34 0 1 C0 0.67 0 0.34 0 0 Z " fill="#2299F6" transform="translate(205,376)"/>
<path d="M0 0 C4.04301175 1.48518799 7.61146256 3.42877998 11.3125 5.625 C12.38113281 6.25664062 13.44976562 6.88828125 14.55078125 7.5390625 C15.76314453 8.26222656 15.76314453 8.26222656 17 9 C16.34 9.66 15.68 10.32 15 11 C12.5 9.625 12.5 9.625 10 8 C10 7.34 10 6.68 10 6 C8.68 6 7.36 6 6 6 C6 5.34 6 4.68 6 4 C5.195625 3.71125 4.39125 3.4225 3.5625 3.125 C1 2 1 2 0 0 Z " fill="#3F85F4" transform="translate(246,400)"/>
<path d="M0 0 C0.33 0 0.66 0 1 0 C2.33257403 13.6332574 2.33257403 13.6332574 1 20 C0.67 20 0.34 20 0 20 C-1.86666667 5.6 -1.86666667 5.6 0 0 Z " fill="#774DF6" transform="translate(222,564)"/>
<path d="M0 0 C0 1.32 0 2.64 0 4 C-2.64 4 -5.28 4 -8 4 C-8 3.01 -8 2.02 -8 1 C-2.25 0 -2.25 0 0 0 Z " fill="#59555C" transform="translate(831,558)"/>
<path d="M0 0 C3.02419525 0.58803797 6.01758453 1.22678118 9 2 C9 2.66 9 3.32 9 4 C10.32 4.33 11.64 4.66 13 5 C11.68 5.99 10.36 6.98 9 8 C9 7.01 9 6.02 9 5 C8.2575 4.731875 7.515 4.46375 6.75 4.1875 C4.13363446 3.05770579 2.19812889 1.79106798 0 0 Z " fill="#125492" transform="translate(489,502)"/>
<path d="M0 0 C0.66 0.33 1.32 0.66 2 1 C-5.4 7 -5.4 7 -9 7 C-9.33 7.66 -9.66 8.32 -10 9 C-10 8.01 -10 7.02 -10 6 C-7.8828125 4.359375 -7.8828125 4.359375 -5.125 2.75 C-3.76761719 1.93789063 -3.76761719 1.93789063 -2.3828125 1.109375 C-1.20332031 0.56023437 -1.20332031 0.56023437 0 0 Z " fill="#209CF7" transform="translate(186,377)"/>
<path d="M0 0 C0.66 0.33 1.32 0.66 2 1 C0.57277341 2.1998278 -0.86715776 3.3845576 -2.3125 4.5625 C-3.51326172 5.55443359 -3.51326172 5.55443359 -4.73828125 6.56640625 C-5.85783203 7.27603516 -5.85783203 7.27603516 -7 8 C-7.99 7.67 -8.98 7.34 -10 7 C-6.81404865 4.36021174 -3.69029454 1.89501612 0 0 Z " fill="#259AF9" transform="translate(147,400)"/>
<path d="M0 0 C4.50802601 1.25805377 7.4912812 2.90407165 11 6 C9.02 6.99 9.02 6.99 7 8 C6.67 7.01 6.34 6.02 6 5 C4.02514795 3.6296945 2.02613283 2.29327628 0 1 C0 0.67 0 0.34 0 0 Z " fill="#2795F7" transform="translate(225,388)"/>
<path d="M0 0 C2.31 0 4.62 0 7 0 C7.33 1.65 7.66 3.3 8 5 C4.62496331 3.8141763 2.35277269 2.72426311 0 0 Z " fill="#5D74F9" transform="translate(255,456)"/>
<path d="M0 0 C2.475 0.99 2.475 0.99 5 2 C5 2.66 5 3.32 5 4 C5.66 4 6.32 4 7 4 C7 4.66 7 5.32 7 6 C3.62496331 4.8141763 1.35277269 3.72426311 -1 1 C-0.67 0.67 -0.34 0.34 0 0 Z " fill="#387DF3" transform="translate(91,576)"/>
<path d="M0 0 C1.11375 0.1546875 1.11375 0.1546875 2.25 0.3125 C-2.89285714 4.74107143 -2.89285714 4.74107143 -6.75 5.3125 C-3.42692308 0.38942308 -3.42692308 0.38942308 0 0 Z " fill="#894FF4" transform="translate(292.75,575.6875)"/>
<path d="M0 0 C1.70884005 1.62339805 3.37446717 3.29319053 5 5 C5 5.66 5 6.32 5 7 C4.01 7 3.02 7 2 7 C0 4 0 4 0 0 Z " fill="#704DE2" transform="translate(939,510)"/>
<path d="M0 0 C3.63 0 7.26 0 11 0 C11 0.99 11 1.98 11 3 C10.01 3.33 9.02 3.66 8 4 C8 3.01 8 2.02 8 1 C5.36 1 2.72 1 0 1 C0 0.67 0 0.34 0 0 Z " fill="#7A50F9" transform="translate(932,467)"/>
<path d="M0 0 C1.98 0 3.96 0 6 0 C6 0.99 6 1.98 6 3 C6.99 3.33 7.98 3.66 9 4 C8.01 4.495 8.01 4.495 7 5 C4.5249829 3.88568235 2.32116581 2.41849022 0 1 C0 0.67 0 0.34 0 0 Z " fill="#3191F9" transform="translate(214,432)"/>
<path d="M0 0 C0.66 0.33 1.32 0.66 2 1 C-2.296875 5.00390625 -2.296875 5.00390625 -4 6 C-6.203125 5.65234375 -6.203125 5.65234375 -8 5 C-6.71475739 4.13619741 -5.42157581 3.28419631 -4.125 2.4375 C-3.04605469 1.72400391 -3.04605469 1.72400391 -1.9453125 0.99609375 C-1.30335938 0.66738281 -0.66140625 0.33867187 0 0 Z " fill="#219AF6" transform="translate(171,386)"/>
<path d="M0 0 C1.98 0 3.96 0 6 0 C6 0.33 6 0.66 6 1 C4.02 1 2.04 1 0 1 C0 0.67 0 0.34 0 0 Z " fill="#1B61A6" transform="translate(476,479)"/>
<path d="" fill="#6C6B6C" transform="translate(0,0)"/>
<path d="M0 0 C3 1 3 1 3 1 Z " fill="#67686A" transform="translate(448,573)"/>
<path d="" fill="#6C6A6C" transform="translate(0,0)"/>
<path d="" fill="#6C6A6F" transform="translate(0,0)"/>
<path d="" fill="#2F64A1" transform="translate(0,0)"/>
<path d="M0 0 C3 1 3 1 3 1 Z " fill="#2263A5" transform="translate(400,461)"/>
<path d="M0 0 C3 1 3 1 3 1 Z " fill="#3966A2" transform="translate(517,444)"/>
<path d="M0 0 C0.66 0.66 1.32 1.32 2 2 C1.34 2 0.68 2 0 2 C0 1.34 0 0.68 0 0 Z " fill="#7D62CD" transform="translate(880,441)"/>
<path d="" fill="#5D76E8" transform="translate(0,0)"/>
<path d="" fill="#6C696D" transform="translate(0,0)"/>
<path d="M0 0 C2 1 2 1 2 1 Z " fill="#5282E3" transform="translate(103,587)"/>
<path d="M0 0 C2 1 2 1 2 1 Z " fill="#6D6B6D" transform="translate(776,585)"/>
<path d="" fill="#6C6B6E" transform="translate(0,0)"/>
<path d="M0 0 C2 1 2 1 2 1 Z " fill="#6F6C70" transform="translate(818,578)"/>
<path d="M0 0 C2 1 2 1 2 1 Z " fill="#67686A" transform="translate(441,577)"/>
<path d="M0 0 C2 1 2 1 2 1 Z " fill="#6D6B6E" transform="translate(820,575)"/>
<path d="" fill="#6E696D" transform="translate(0,0)"/>
<path d="" fill="#646464" transform="translate(0,0)"/>
<path d="M0 0 C2 1 2 1 2 1 Z " fill="#6E6A70" transform="translate(806,571)"/>
<path d="" fill="#676769" transform="translate(0,0)"/>
<path d="" fill="#6C6872" transform="translate(0,0)"/>
<path d="" fill="#6D6A6E" transform="translate(0,0)"/>
<path d="M0 0 C2 1 2 1 2 1 Z " fill="#676568" transform="translate(655,559)"/>
<path d="" fill="#68676D" transform="translate(0,0)"/>
<path d="M0 0 C2 1 2 1 2 1 Z " fill="#716885" transform="translate(752,551)"/>
<path d="M0 0 C2 1 2 1 2 1 Z " fill="#6F648B" transform="translate(782,548)"/>
<path d="M0 0 C2 1 2 1 2 1 Z " fill="#31629A" transform="translate(407,519)"/>
<path d="" fill="#326399" transform="translate(0,0)"/>
<path d="" fill="#3063A0" transform="translate(0,0)"/>
<path d="" fill="#2265A7" transform="translate(0,0)"/>
<path d="M0 0 C2 1 2 1 2 1 Z " fill="#7855EA" transform="translate(906,492)"/>
<path d="M0 0 C2 1 2 1 2 1 Z " fill="#7B56ED" transform="translate(603,481)"/>
<path d="M0 0 C2 1 2 1 2 1 Z " fill="#7E53EC" transform="translate(676,479)"/>
<path d="" fill="#2962AA" transform="translate(0,0)"/>
<path d="" fill="#7E5AE0" transform="translate(0,0)"/>
<path d="M0 0 C2 1 2 1 2 1 Z " fill="#2263A1" transform="translate(462,466)"/>
<path d="M0 0 C2 1 2 1 2 1 Z " fill="#7B5AE2" transform="translate(665,464)"/>
<path d="" fill="#3068A2" transform="translate(0,0)"/>
<path d="" fill="#555554" transform="translate(0,0)"/>
<path d="" fill="#686DE9" transform="translate(0,0)"/>
<path d="" fill="#587DE8" transform="translate(0,0)"/>
<path d="" fill="#706D6F" transform="translate(0,0)"/>
<path d="" fill="#6D6C70" transform="translate(0,0)"/>
<path d="" fill="#6D6B6E" transform="translate(0,0)"/>
<path d="" fill="#686868" transform="translate(0,0)"/>
<path d="" fill="#706E71" transform="translate(0,0)"/>
<path d="" fill="#6F6B6F" transform="translate(0,0)"/>
<path d="" fill="#6D6A6D" transform="translate(0,0)"/>
<path d="" fill="#6E6C6C" transform="translate(0,0)"/>
<path d="" fill="#6A6A6B" transform="translate(0,0)"/>
<path d="" fill="#6B696B" transform="translate(0,0)"/>
<path d="" fill="#6B6968" transform="translate(0,0)"/>
<path d="" fill="#6E6D70" transform="translate(0,0)"/>
<path d="" fill="#67696C" transform="translate(0,0)"/>
<path d="" fill="#6C6A6C" transform="translate(0,0)"/>
<path d="" fill="#6C6B6F" transform="translate(0,0)"/>
<path d="" fill="#9160EA" transform="translate(0,0)"/>
<path d="" fill="#67686B" transform="translate(0,0)"/>
<path d="" fill="#686769" transform="translate(0,0)"/>
<path d="" fill="#676668" transform="translate(0,0)"/>
<path d="" fill="#666567" transform="translate(0,0)"/>
<path d="" fill="#69686B" transform="translate(0,0)"/>
<path d="" fill="#686969" transform="translate(0,0)"/>
<path d="" fill="#6C6A6F" transform="translate(0,0)"/>
<path d="" fill="#696969" transform="translate(0,0)"/>
<path d="" fill="#6F6B6F" transform="translate(0,0)"/>
<path d="" fill="#6E6C6C" transform="translate(0,0)"/>
<path d="" fill="#696767" transform="translate(0,0)"/>
<path d="" fill="#6C6A70" transform="translate(0,0)"/>
<path d="" fill="#656567" transform="translate(0,0)"/>
<path d="" fill="#6D6970" transform="translate(0,0)"/>
<path d="" fill="#68686B" transform="translate(0,0)"/>
<path d="" fill="#6B676A" transform="translate(0,0)"/>
<path d="" fill="#6E686F" transform="translate(0,0)"/>
<path d="" fill="#686669" transform="translate(0,0)"/>
<path d="" fill="#646464" transform="translate(0,0)"/>
<path d="" fill="#6A696C" transform="translate(0,0)"/>
<path d="" fill="#6E6B70" transform="translate(0,0)"/>
<path d="" fill="#6E6A74" transform="translate(0,0)"/>
<path d="" fill="#6E6B73" transform="translate(0,0)"/>
<path d="" fill="#636768" transform="translate(0,0)"/>
<path d="" fill="#626566" transform="translate(0,0)"/>
<path d="" fill="#656666" transform="translate(0,0)"/>
<path d="" fill="#6C6973" transform="translate(0,0)"/>
<path d="" fill="#6A676B" transform="translate(0,0)"/>
<path d="" fill="#5777FD" transform="translate(0,0)"/>
<path d="" fill="#68696C" transform="translate(0,0)"/>
<path d="" fill="#68636A" transform="translate(0,0)"/>
<path d="" fill="#6B6B6F" transform="translate(0,0)"/>
<path d="" fill="#6B6C70" transform="translate(0,0)"/>
<path d="" fill="#68656A" transform="translate(0,0)"/>
<path d="" fill="#606268" transform="translate(0,0)"/>
<path d="" fill="#636569" transform="translate(0,0)"/>
<path d="" fill="#6D696E" transform="translate(0,0)"/>
<path d="" fill="#66666F" transform="translate(0,0)"/>
<path d="" fill="#62626A" transform="translate(0,0)"/>
<path d="" fill="#6F6982" transform="translate(0,0)"/>
<path d="" fill="#6B6778" transform="translate(0,0)"/>
<path d="" fill="#6D6777" transform="translate(0,0)"/>
<path d="" fill="#6C687D" transform="translate(0,0)"/>
<path d="" fill="#706589" transform="translate(0,0)"/>
<path d="" fill="#71658D" transform="translate(0,0)"/>
<path d="" fill="#6C6680" transform="translate(0,0)"/>
<path d="" fill="#5F6374" transform="translate(0,0)"/>
<path d="" fill="#5E6673" transform="translate(0,0)"/>
<path d="" fill="#5A636F" transform="translate(0,0)"/>
<path d="" fill="#72678B" transform="translate(0,0)"/>
<path d="" fill="#5D6477" transform="translate(0,0)"/>
<path d="" fill="#7F6BF8" transform="translate(0,0)"/>
<path d="" fill="#7A57D9" transform="translate(0,0)"/>
<path d="" fill="#7657D5" transform="translate(0,0)"/>
<path d="" fill="#2D5F96" transform="translate(0,0)"/>
<path d="" fill="#795DDB" transform="translate(0,0)"/>
<path d="" fill="#5664AD" transform="translate(0,0)"/>
<path d="" fill="#2C5F96" transform="translate(0,0)"/>
<path d="" fill="#4667A2" transform="translate(0,0)"/>
<path d="" fill="#7756D6" transform="translate(0,0)"/>
<path d="" fill="#7857DA" transform="translate(0,0)"/>
<path d="" fill="#5F5DB8" transform="translate(0,0)"/>
<path d="" fill="#7658DB" transform="translate(0,0)"/>
<path d="" fill="#795BDE" transform="translate(0,0)"/>
<path d="" fill="#7B59DE" transform="translate(0,0)"/>
<path d="" fill="#7856DD" transform="translate(0,0)"/>
<path d="" fill="#33639D" transform="translate(0,0)"/>
<path d="" fill="#26609F" transform="translate(0,0)"/>
<path d="" fill="#26609B" transform="translate(0,0)"/>
<path d="" fill="#755BD8" transform="translate(0,0)"/>
<path d="" fill="#755AD9" transform="translate(0,0)"/>
<path d="" fill="#7A58E3" transform="translate(0,0)"/>
<path d="" fill="#2261A1" transform="translate(0,0)"/>
<path d="" fill="#7A58E2" transform="translate(0,0)"/>
<path d="" fill="#7857E5" transform="translate(0,0)"/>
<path d="" fill="#1E609F" transform="translate(0,0)"/>
<path d="" fill="#1B62A8" transform="translate(0,0)"/>
<path d="" fill="#1E62A7" transform="translate(0,0)"/>
<path d="" fill="#1F63A1" transform="translate(0,0)"/>
<path d="" fill="#1E64A1" transform="translate(0,0)"/>
<path d="" fill="#7757E2" transform="translate(0,0)"/>
<path d="" fill="#2461A4" transform="translate(0,0)"/>
<path d="" fill="#3766A7" transform="translate(0,0)"/>
<path d="" fill="#1E64A4" transform="translate(0,0)"/>
<path d="" fill="#3665A7" transform="translate(0,0)"/>
<path d="" fill="#7953EB" transform="translate(0,0)"/>
<path d="" fill="#7A59EA" transform="translate(0,0)"/>
<path d="" fill="#7556E9" transform="translate(0,0)"/>
<path d="" fill="#7C56EE" transform="translate(0,0)"/>
<path d="" fill="#2662A5" transform="translate(0,0)"/>
<path d="" fill="#7B54EB" transform="translate(0,0)"/>
<path d="" fill="#645AD1" transform="translate(0,0)"/>
<path d="" fill="#1C60A8" transform="translate(0,0)"/>
<path d="" fill="#3B9DFC" transform="translate(0,0)"/>
<path d="" fill="#7A52EC" transform="translate(0,0)"/>
<path d="" fill="#1761A7" transform="translate(0,0)"/>
<path d="" fill="#1961A5" transform="translate(0,0)"/>
<path d="" fill="#7A53ED" transform="translate(0,0)"/>
<path d="" fill="#2361A5" transform="translate(0,0)"/>
<path d="" fill="#7857E7" transform="translate(0,0)"/>
<path d="" fill="#7953EB" transform="translate(0,0)"/>
<path d="" fill="#7A52EB" transform="translate(0,0)"/>
<path d="" fill="#1C62A5" transform="translate(0,0)"/>
<path d="" fill="#7B53E9" transform="translate(0,0)"/>
<path d="" fill="#7B52EC" transform="translate(0,0)"/>
<path d="" fill="#4398FB" transform="translate(0,0)"/>
<path d="" fill="#1C62A7" transform="translate(0,0)"/>
<path d="" fill="#7A53ED" transform="translate(0,0)"/>
<path d="" fill="#7A54EA" transform="translate(0,0)"/>
<path d="" fill="#7B54ED" transform="translate(0,0)"/>
<path d="" fill="#7A55EB" transform="translate(0,0)"/>
<path d="" fill="#1C60A4" transform="translate(0,0)"/>
<path d="" fill="#7C5DD4" transform="translate(0,0)"/>
<path d="" fill="#5295FB" transform="translate(0,0)"/>
<path d="" fill="#7B5AEA" transform="translate(0,0)"/>
<path d="" fill="#7D57E6" transform="translate(0,0)"/>
<path d="" fill="#449BF9" transform="translate(0,0)"/>
<path d="" fill="#2965AB" transform="translate(0,0)"/>
<path d="" fill="#7857E3" transform="translate(0,0)"/>
<path d="" fill="#7E59E1" transform="translate(0,0)"/>
<path d="" fill="#685CD7" transform="translate(0,0)"/>
<path d="" fill="#7958E3" transform="translate(0,0)"/>
<path d="" fill="#7A53E0" transform="translate(0,0)"/>
<path d="" fill="#4164B5" transform="translate(0,0)"/>
<path d="" fill="#2765AB" transform="translate(0,0)"/>
<path d="" fill="#7E5BE4" transform="translate(0,0)"/>
<path d="" fill="#7C5AEA" transform="translate(0,0)"/>
<path d="" fill="#7B5ADF" transform="translate(0,0)"/>
<path d="" fill="#1D64A7" transform="translate(0,0)"/>
<path d="" fill="#7D57E7" transform="translate(0,0)"/>
<path d="" fill="#6B5CD4" transform="translate(0,0)"/>
<path d="" fill="#2564A5" transform="translate(0,0)"/>
<path d="" fill="#7D60E2" transform="translate(0,0)"/>
<path d="" fill="#7D5ADD" transform="translate(0,0)"/>
<path d="" fill="#7A5ADE" transform="translate(0,0)"/>
<path d="" fill="#7B5BE4" transform="translate(0,0)"/>
<path d="" fill="#7C58E6" transform="translate(0,0)"/>
<path d="" fill="#7C5BDF" transform="translate(0,0)"/>
<path d="" fill="#3466A9" transform="translate(0,0)"/>
<path d="" fill="#2663A2" transform="translate(0,0)"/>
<path d="" fill="#7D5CE0" transform="translate(0,0)"/>
<path d="" fill="#3168AF" transform="translate(0,0)"/>
<path d="" fill="#6C7AFA" transform="translate(0,0)"/>
<path d="" fill="#6D5DD0" transform="translate(0,0)"/>
<path d="" fill="#399BFB" transform="translate(0,0)"/>
<path d="" fill="#7A5FDD" transform="translate(0,0)"/>
<path d="" fill="#7D5FCF" transform="translate(0,0)"/>
<path d="" fill="#755FD0" transform="translate(0,0)"/>
<path d="" fill="#7460CD" transform="translate(0,0)"/>
<path d="" fill="#3667A3" transform="translate(0,0)"/>
<path d="" fill="#38689F" transform="translate(0,0)"/>
<path d="" fill="#7E64CB" transform="translate(0,0)"/>
<path d="" fill="#7C62D0" transform="translate(0,0)"/>
<path d="" fill="#3A9EFC" transform="translate(0,0)"/>
<path d="" fill="#7E60CC" transform="translate(0,0)"/>
<path d="" fill="#4494F8" transform="translate(0,0)"/>
<path d="" fill="#359BFB" transform="translate(0,0)"/>
<path d="" fill="#4298FC" transform="translate(0,0)"/>
<path d="" fill="#4899E4" transform="translate(0,0)"/>
<path d="" fill="#3F98FC" transform="translate(0,0)"/>
<path d="" fill="#429DEB" transform="translate(0,0)"/>
<path d="" fill="#369EFE" transform="translate(0,0)"/>
<path d="" fill="#369BFA" transform="translate(0,0)"/>
<path d="" fill="#379EFB" transform="translate(0,0)"/>
<path d="" fill="#3F9EED" transform="translate(0,0)"/>
<path d="" fill="#677EEE" transform="translate(0,0)"/>
<path d="" fill="#3E9FEF" transform="translate(0,0)"/>
<path d="" fill="#4796F1" transform="translate(0,0)"/>
<path d="" fill="#389FED" transform="translate(0,0)"/>
<path d="" fill="#3B9EED" transform="translate(0,0)"/>
<path d="" fill="#329DF0" transform="translate(0,0)"/>
<path d="" fill="#3A9AEC" transform="translate(0,0)"/>
<path d="" fill="#36A0F0" transform="translate(0,0)"/>
<path d="" fill="#369AEB" transform="translate(0,0)"/>
</svg>
